<svg width="357" height="53" viewBox="0 0 357 53" fill="none" xmlns="http://www.w3.org/2000/svg">
<path d="M38.24 52.32C37.2267 52.32 36.4533 52.0533 35.92 51.52C35.3867 50.9867 35.0267 50.3067 34.84 49.48C34.6533 48.6533 34.5333 47.8 34.48 46.92C34.48 46.4133 34.5067 45.8133 34.56 45.12C34.6133 44.4267 34.68 43.76 34.76 43.12C34.8667 42.4533 34.9467 41.96 35 41.64H25.84C24.1333 43.4267 22.5067 45.1733 20.96 46.88C19.44 48.56 17.9467 50.2667 16.48 52H12.48C13.1733 51.36 14.08 50.5067 15.2 49.44C16.3467 48.3467 17.64 47.1067 19.08 45.72C20.52 44.3333 22.0133 42.8667 23.56 41.32C25.1333 39.7467 26.7067 38.1733 28.28 36.6C29.8533 35 31.3333 33.4667 32.72 32C34.1333 30.5067 35.3867 29.16 36.48 27.96C37.0133 27.3733 37.5067 26.7867 37.96 26.2C38.44 25.5867 38.9733 25.08 39.56 24.68C40.1467 24.28 40.8667 24.08 41.72 24.08H44.6C44.1467 24.5067 43.6933 25.2267 43.24 26.24C42.7867 27.2533 42.3733 28.3467 42 29.52C41.6533 30.6933 41.36 31.76 41.12 32.72C40.7733 34.16 40.4133 35.72 40.04 37.4C39.6933 39.08 39.4133 40.7467 39.2 42.4C38.9867 44.0533 38.92 45.5867 39 47C39.0267 47.5067 39.12 48.04 39.28 48.6C39.4667 49.1333 39.72 49.6 40.04 50C40.3867 50.3733 40.8133 50.56 41.32 50.56C41.7733 50.56 42.2667 50.3867 42.8 50.04L43.04 50.4C42.6933 50.9333 42.0267 51.3867 41.04 51.76C40.08 52.1333 39.1467 52.32 38.24 52.32ZM22.24 32.04C21.8133 31.5867 21.4933 31.12 21.28 30.64C21.0933 30.16 21 29.7067 21 29.28C21 28.7467 21.1067 28.24 21.32 27.76C21.56 27.2533 21.84 26.8267 22.16 26.48C22.8 25.76 23.6 25.2267 24.56 24.88C25.52 24.5333 26.5333 24.32 27.6 24.24C28.6933 24.1333 29.7333 24.08 30.72 24.08H39.68C39.12 24.64 38.2667 25.08 37.12 25.4C36 25.6933 34.7733 25.92 33.44 26.08C32.1067 26.2133 30.8133 26.3467 29.56 26.48C28.3333 26.5867 27.32 26.7333 26.52 26.92C25.1067 27.24 24.0267 27.8533 23.28 28.76C22.56 29.6667 22.2133 30.76 22.24 32.04ZM27.6 39.64H35.28C35.6 37.88 35.9733 36.12 36.4 34.36C36.8533 32.6 37.2533 31.0533 37.6 29.72C35.9733 31.2667 34.3067 32.88 32.6 34.56C30.92 36.2133 29.2533 37.9067 27.6 39.64ZM225.158 52.32C224.118 52.32 223.411 52.0533 223.038 51.52C222.665 50.96 222.478 50.2667 222.478 49.44C222.478 48.6933 222.585 47.8533 222.798 46.92C223.038 45.7733 223.465 44.4133 224.078 42.84C224.718 41.2667 225.425 39.6267 226.198 37.92C226.998 36.1867 227.785 34.5333 228.558 32.96C229.358 31.3867 230.051 30.04 230.638 28.92C230.291 29.24 229.931 29.5733 229.558 29.92C229.211 30.2667 228.851 30.6533 228.478 31.08C226.931 32.8133 225.518 34.4667 224.238 36.04C222.985 37.5867 221.771 39.12 220.598 40.64C219.451 42.1333 218.265 43.6667 217.038 45.24C216.371 46.12 215.838 46.7867 215.438 47.24C215.065 47.6667 214.718 47.96 214.398 48.12C214.105 48.2533 213.731 48.32 213.278 48.32C212.611 48.32 211.851 48.12 210.998 47.72C211.371 47.2667 211.625 46.2933 211.758 44.8C211.918 43.3067 211.998 41.6 211.998 39.68C211.998 37.7333 211.931 35.72 211.798 33.64C211.665 31.56 211.465 29.72 211.198 28.12C211.038 28.3867 210.745 28.9733 210.318 29.88C209.918 30.7867 209.425 31.9067 208.838 33.24C208.278 34.5467 207.678 35.9733 207.038 37.52C206.398 39.04 205.771 40.5733 205.158 42.12C204.571 43.64 204.038 45.08 203.558 46.44C203.105 47.8 202.758 48.9733 202.518 49.96C202.278 50.9467 202.198 51.6267 202.278 52H198.598C199.185 50.5067 199.851 48.8533 200.598 47.04C201.371 45.2 202.171 43.32 202.998 41.4C203.825 39.48 204.638 37.6133 205.438 35.8C206.265 33.9867 207.011 32.3333 207.678 30.84C208.371 29.32 208.945 28.0667 209.398 27.08C209.851 26.0933 210.145 25.48 210.278 25.24C209.105 25.2133 207.905 25.3333 206.678 25.6C205.451 25.84 204.305 26.1867 203.238 26.64C202.171 27.0933 201.265 27.6133 200.518 28.2C199.798 28.7867 199.331 29.4 199.118 30.04C199.091 30.12 199.038 30.16 198.958 30.16C198.745 30.16 198.638 29.9867 198.638 29.64C198.638 29.5867 198.638 29.5333 198.638 29.48C198.665 29.4 198.691 29.32 198.718 29.24C198.958 28.5467 199.251 27.9333 199.598 27.4C199.971 26.8667 200.331 26.4133 200.678 26.04C201.558 25.1333 202.545 24.5867 203.638 24.4C204.731 24.1867 205.891 24.08 207.118 24.08H210.998C211.585 24.08 212.158 24.08 212.718 24.08C213.278 24.08 213.771 24.2267 214.198 24.52C214.625 24.7867 214.905 25.32 215.038 26.12C215.145 26.68 215.238 27.5333 215.318 28.68C215.425 29.8 215.505 31.0533 215.558 32.44C215.638 33.8267 215.705 35.2 215.758 36.56C215.811 37.92 215.851 39.0933 215.878 40.08C215.878 40.1333 215.878 40.2933 215.878 40.56C215.905 40.8 215.918 41.1067 215.918 41.48C215.918 41.8267 215.905 42.2267 215.878 42.68C215.878 43.1067 215.851 43.52 215.798 43.92C216.358 43.2267 217.051 42.3733 217.878 41.36C218.731 40.32 219.651 39.2 220.638 38C221.625 36.7733 222.625 35.5467 223.638 34.32C224.651 33.0933 225.625 31.92 226.558 30.8C227.491 29.68 228.305 28.7067 228.998 27.88C229.718 27.0267 230.251 26.3867 230.598 25.96C231.211 25.2667 231.985 24.7867 232.918 24.52C233.851 24.2267 234.785 24.08 235.718 24.08H238.198C237.638 24.5067 237.025 25.2267 236.358 26.24C235.691 27.2533 235.038 28.3467 234.398 29.52C233.785 30.6933 233.238 31.76 232.758 32.72C232.065 34.16 231.358 35.72 230.638 37.4C229.918 39.08 229.278 40.7467 228.718 42.4C228.158 44.0533 227.745 45.5867 227.478 47C227.398 47.4267 227.358 47.88 227.358 48.36C227.358 48.9467 227.451 49.4667 227.638 49.92C227.851 50.3467 228.225 50.56 228.758 50.56C229.185 50.56 229.705 50.3867 230.318 50.04H230.358C230.411 50.04 230.451 50.0933 230.478 50.2C230.505 50.28 230.491 50.3467 230.438 50.4C229.931 50.9333 229.158 51.3867 228.118 51.76C227.078 52.1333 226.091 52.32 225.158 52.32Z" fill="#FF0000"/>
<path d="M48.28 52.8C47.3733 52.8 46.52 52.68 45.72 52.44C44.92 52.2 44.2667 51.8267 43.76 51.32C43.2533 50.8133 43 50.1733 43 49.4C43 48.8133 43.1733 48.24 43.52 47.68C43.8933 47.12 44.4133 46.84 45.08 46.84C45.3733 46.84 45.64 46.9067 45.88 47.04C46.12 47.1733 46.28 47.3467 46.36 47.56C46.3333 47.5867 46.2667 47.68 46.16 47.84C46.0533 47.9733 45.9867 48.0667 45.96 48.12C45.72 48.6 45.6 49.04 45.6 49.44C45.6 50 45.8 50.4533 46.2 50.8C46.6267 51.1467 47.1733 51.32 47.84 51.32C48.72 51.2933 49.48 50.9867 50.12 50.4C50.7867 49.7867 51.12 49.0667 51.12 48.24C51.12 47.76 51.0133 47.3067 50.8 46.88C50.4533 46.16 49.9867 45.5467 49.4 45.04C48.84 44.5067 48.2933 43.9733 47.76 43.44C47.2533 42.9067 46.88 42.2667 46.64 41.52C46.5333 41.1733 46.48 40.7467 46.48 40.24C46.48 39.7333 46.5467 39.24 46.68 38.76C46.8133 38.2533 47.0133 37.8267 47.28 37.48C47.6533 36.9733 48.2133 36.5067 48.96 36.08C49.8933 35.5733 50.9867 35.32 52.24 35.32C53.0667 35.32 53.8 35.4267 54.44 35.64C54.92 35.8 55.3333 36.0667 55.68 36.44C56.0533 36.7867 56.24 37.2533 56.24 37.84C56.24 38.5067 56.0267 39.1467 55.6 39.76C55.2 40.3467 54.6133 40.7067 53.84 40.84C53.36 40.8933 52.9333 40.8133 52.56 40.6C52.1867 40.36 52.0533 39.92 52.16 39.28C52.88 39.12 53.4 38.8267 53.72 38.4C53.88 38.16 53.96 37.92 53.96 37.68C53.96 37.2267 53.7733 36.92 53.4 36.76C53.0533 36.5733 52.72 36.48 52.4 36.48C52 36.48 51.6133 36.5333 51.24 36.64C50.8933 36.72 50.5733 36.8667 50.28 37.08C49.6933 37.5867 49.4 38.1733 49.4 38.84C49.4 38.9467 49.4133 39.0667 49.44 39.2C49.4933 39.3333 49.5333 39.4667 49.56 39.6C49.6933 39.9467 49.8933 40.2667 50.16 40.56C50.4267 40.8533 50.6933 41.1067 50.96 41.32C51.6267 41.8 52.3067 42.32 53 42.88C53.72 43.44 54.2533 44.12 54.6 44.92C54.8667 45.48 55 46.0533 55 46.64C55 47.44 54.8 48.1733 54.4 48.84C54 49.48 53.5467 49.9867 53.04 50.36C53.92 49.9867 54.7733 49.3333 55.6 48.4C56.4533 47.44 57.1867 46.4933 57.8 45.56C58.2 44.9467 58.56 44.3733 58.88 43.84C59.2267 43.28 59.5733 42.6667 59.92 42C60.0267 41.8133 60.12 41.72 60.2 41.72C60.36 41.72 60.44 41.9467 60.44 42.4C60.44 42.5867 60.4 42.8133 60.32 43.08C60.2667 43.3467 60.1733 43.6133 60.04 43.88C59.56 44.68 59.1067 45.4267 58.68 46.12C58.2533 46.7867 57.7333 47.52 57.12 48.32C55.8933 49.9467 54.5867 51.1067 53.2 51.8C51.8133 52.4667 50.1733 52.8 48.28 52.8ZM63.3972 52.8C62.4905 52.8 61.6372 52.68 60.8372 52.44C60.0372 52.2 59.3839 51.8267 58.8772 51.32C58.3705 50.8133 58.1172 50.1733 58.1172 49.4C58.1172 48.8133 58.2905 48.24 58.6372 47.68C59.0105 47.12 59.5305 46.84 60.1972 46.84C60.4905 46.84 60.7572 46.9067 60.9972 47.04C61.2372 47.1733 61.3972 47.3467 61.4772 47.56C61.4505 47.5867 61.3839 47.68 61.2772 47.84C61.1705 47.9733 61.1039 48.0667 61.0772 48.12C60.8372 48.6 60.7172 49.04 60.7172 49.44C60.7172 50 60.9172 50.4533 61.3172 50.8C61.7439 51.1467 62.2905 51.32 62.9572 51.32C63.8372 51.2933 64.5972 50.9867 65.2372 50.4C65.9039 49.7867 66.2372 49.0667 66.2372 48.24C66.2372 47.76 66.1305 47.3067 65.9172 46.88C65.5705 46.16 65.1039 45.5467 64.5172 45.04C63.9572 44.5067 63.4105 43.9733 62.8772 43.44C62.3705 42.9067 61.9972 42.2667 61.7572 41.52C61.6505 41.1733 61.5972 40.7467 61.5972 40.24C61.5972 39.7333 61.6639 39.24 61.7972 38.76C61.9305 38.2533 62.1305 37.8267 62.3972 37.48C62.7705 36.9733 63.3305 36.5067 64.0772 36.08C65.0105 35.5733 66.1039 35.32 67.3572 35.32C68.1839 35.32 68.9172 35.4267 69.5572 35.64C70.0372 35.8 70.4505 36.0667 70.7972 36.44C71.1705 36.7867 71.3572 37.2533 71.3572 37.84C71.3572 38.5067 71.1439 39.1467 70.7172 39.76C70.3172 40.3467 69.7305 40.7067 68.9572 40.84C68.4772 40.8933 68.0505 40.8133 67.6772 40.6C67.3039 40.36 67.1705 39.92 67.2772 39.28C67.9972 39.12 68.5172 38.8267 68.8372 38.4C68.9972 38.16 69.0772 37.92 69.0772 37.68C69.0772 37.2267 68.8905 36.92 68.5172 36.76C68.1705 36.5733 67.8372 36.48 67.5172 36.48C67.1172 36.48 66.7305 36.5333 66.3572 36.64C66.0105 36.72 65.6905 36.8667 65.3972 37.08C64.8105 37.5867 64.5172 38.1733 64.5172 38.84C64.5172 38.9467 64.5305 39.0667 64.5572 39.2C64.6105 39.3333 64.6505 39.4667 64.6772 39.6C64.8105 39.9467 65.0105 40.2667 65.2772 40.56C65.5439 40.8533 65.8105 41.1067 66.0772 41.32C66.7439 41.8 67.4239 42.32 68.1172 42.88C68.8372 43.44 69.3705 44.12 69.7172 44.92C69.9839 45.48 70.1172 46.0533 70.1172 46.64C70.1172 47.44 69.9172 48.1733 69.5172 48.84C69.1172 49.48 68.6639 49.9867 68.1572 50.36C69.0372 49.9867 69.8905 49.3333 70.7172 48.4C71.5705 47.44 72.3039 46.4933 72.9172 45.56C73.3172 44.9467 73.6772 44.3733 73.9972 43.84C74.3439 43.28 74.6905 42.6667 75.0372 42C75.1439 41.8133 75.2372 41.72 75.3172 41.72C75.4772 41.72 75.5572 41.9467 75.5572 42.4C75.5572 42.5867 75.5172 42.8133 75.4372 43.08C75.3839 43.3467 75.2905 43.6133 75.1572 43.88C74.6772 44.68 74.2239 45.4267 73.7972 46.12C73.3705 46.7867 72.8505 47.52 72.2372 48.32C71.0105 49.9467 69.7039 51.1067 68.3172 51.8C66.9305 52.4667 65.2905 52.8 63.3972 52.8ZM78.1544 52.32C76.9277 52.32 75.861 51.9333 74.9544 51.16C74.0744 50.3867 73.6344 49.1467 73.6344 47.44C73.6344 46.1867 73.861 44.88 74.3144 43.52C74.7677 42.16 75.4077 40.8933 76.2344 39.72C77.0877 38.5467 78.1144 37.5867 79.3144 36.84C80.5144 36.0933 81.861 35.72 83.3544 35.72C84.581 35.72 85.5277 35.96 86.1944 36.44C86.8877 36.8933 87.381 37.5067 87.6744 38.28C87.9677 39.0533 88.1144 39.88 88.1144 40.76C88.1144 41.4267 88.0344 42.1067 87.8744 42.8C87.741 43.4667 87.541 44.1333 87.2744 44.8C87.7277 45.3333 88.301 45.6 88.9944 45.6C89.741 45.6 90.4344 45.32 91.0744 44.76C91.4477 44.44 91.781 44.04 92.0744 43.56C92.3944 43.0533 92.6744 42.5867 92.9144 42.16C92.9944 42 93.0877 41.92 93.1944 41.92C93.3277 41.92 93.3944 42.1067 93.3944 42.48C93.3944 42.72 93.3544 43 93.2744 43.32C93.221 43.64 93.0877 43.96 92.8744 44.28C92.4744 44.9733 92.061 45.5067 91.6344 45.88C91.2077 46.2267 90.7277 46.5067 90.1944 46.72C89.7944 46.88 89.3677 46.96 88.9144 46.96C88.0877 46.96 87.341 46.7067 86.6744 46.2C86.461 46.6533 86.1944 47.12 85.8744 47.6C85.101 48.9067 84.101 50.0267 82.8744 50.96C81.6477 51.8667 80.0744 52.32 78.1544 52.32ZM79.6744 50.8C80.2877 50.8 80.8744 50.6 81.4344 50.2C82.021 49.7733 82.5544 49.2533 83.0344 48.64C83.5144 48.0267 83.9277 47.3867 84.2744 46.72C84.6477 46.0533 84.9544 45.4667 85.1944 44.96C84.2877 44.1867 83.8344 43.2133 83.8344 42.04C83.8344 41.2667 84.0477 40.6667 84.4744 40.24C84.901 39.8133 85.4877 39.6267 86.2344 39.68C86.2077 39.0667 86.0477 38.56 85.7544 38.16C85.461 37.76 84.981 37.56 84.3144 37.56C83.701 37.56 83.1144 37.7467 82.5544 38.12C82.021 38.4933 81.5144 38.9733 81.0344 39.56C80.581 40.12 80.1677 40.7067 79.7944 41.32C79.4477 41.9067 79.1544 42.44 78.9144 42.92C78.5677 43.6133 78.2477 44.4533 77.9544 45.44C77.661 46.4267 77.5144 47.3467 77.5144 48.2C77.5144 48.9467 77.661 49.5733 77.9544 50.08C78.2744 50.56 78.8477 50.8 79.6744 50.8ZM95.7084 52.4C94.4551 52.4 93.4418 52.1733 92.6684 51.72C91.8951 51.24 91.3351 50.6133 90.9884 49.84C90.6684 49.04 90.5084 48.1867 90.5084 47.28C90.5084 46.3733 90.6418 45.4533 90.9084 44.52C91.1751 43.5867 91.5351 42.7067 91.9884 41.88C92.9218 40.2 94.0684 38.8133 95.4284 37.72C96.8151 36.6267 98.5084 36.08 100.508 36.08C101.762 36.08 102.735 36.4 103.428 37.04C104.122 37.68 104.468 38.4267 104.468 39.28C104.468 40.08 104.228 40.8133 103.748 41.48C103.295 42.1467 102.682 42.48 101.908 42.48C101.482 42.48 101.108 42.36 100.788 42.12C100.468 41.88 100.308 41.5067 100.308 41C100.308 40.92 100.308 40.84 100.308 40.76C100.335 40.6533 100.362 40.5467 100.388 40.44C100.548 40.4133 100.775 40.3733 101.068 40.32C101.388 40.24 101.642 40.0533 101.828 39.76C102.175 39.28 102.348 38.8 102.348 38.32C102.348 38.0267 102.255 37.7867 102.068 37.6C101.908 37.3867 101.628 37.28 101.228 37.28C100.508 37.28 99.7751 37.5467 99.0284 38.08C98.2818 38.5867 97.5751 39.2667 96.9084 40.12C96.2684 40.9733 95.7084 41.9067 95.2284 42.92C94.4818 44.5467 94.1084 46.04 94.1084 47.4C94.1084 48.3867 94.3351 49.2 94.7884 49.84C95.2418 50.4533 95.9618 50.76 96.9484 50.76C98.2018 50.76 99.3751 50.3333 100.468 49.48C101.588 48.6 102.588 47.5867 103.468 46.44C104.055 45.6933 104.575 44.9333 105.028 44.16C105.508 43.3867 105.908 42.68 106.228 42.04C106.335 41.8533 106.428 41.76 106.508 41.76C106.668 41.76 106.748 41.9867 106.748 42.44C106.748 42.6533 106.708 42.9067 106.628 43.2C106.575 43.4667 106.482 43.72 106.348 43.96C105.895 44.7067 105.428 45.4533 104.948 46.2C104.495 46.9467 104.002 47.6533 103.468 48.32C102.562 49.4933 101.495 50.4667 100.268 51.24C99.0418 52.0133 97.5218 52.4 95.7084 52.4ZM113.604 32.8C112.911 32.56 112.564 32.1067 112.564 31.44C112.564 30.8267 112.804 30.2 113.284 29.56C113.791 28.8933 114.338 28.4667 114.924 28.28C115.058 28.2267 115.164 28.2 115.244 28.2C115.351 28.2 115.458 28.2 115.564 28.2C116.018 28.2 116.391 28.3333 116.684 28.6C116.978 28.8667 117.124 29.1733 117.124 29.52C117.124 30 116.871 30.4 116.364 30.72C115.964 30.6667 115.578 30.76 115.204 31C114.831 31.24 114.498 31.5333 114.204 31.88C113.938 32.2267 113.738 32.5333 113.604 32.8ZM106.724 52.24C106.378 52.24 106.044 52.16 105.724 52C105.404 51.8667 105.138 51.5867 104.924 51.16C104.631 50.52 104.484 49.76 104.484 48.88C104.484 47.92 104.631 46.8533 104.924 45.68C105.218 44.48 105.604 43.2533 106.084 42C106.271 41.5467 106.511 40.9867 106.804 40.32C107.098 39.6533 107.444 38.9867 107.844 38.32C108.244 37.6533 108.698 37.1067 109.204 36.68C109.738 36.2267 110.311 36 110.924 36C111.218 36 111.631 36.0133 112.164 36.04C112.698 36.0667 113.084 36.0667 113.324 36.04C113.164 36.1467 112.978 36.36 112.764 36.68C112.551 37 112.351 37.3333 112.164 37.68C111.978 38 111.831 38.2533 111.724 38.44C111.031 39.8267 110.378 41.2 109.764 42.56C109.151 43.92 108.684 45.2267 108.364 46.48C108.311 46.6933 108.271 46.9067 108.244 47.12C108.218 47.3333 108.204 47.5333 108.204 47.72C108.204 48.4933 108.458 48.88 108.964 48.88C109.178 48.88 109.404 48.8267 109.644 48.72C109.911 48.5867 110.218 48.3867 110.564 48.12C111.178 47.64 111.711 47.0933 112.164 46.48C112.698 45.7867 113.204 45.0533 113.684 44.28C114.164 43.48 114.578 42.7467 114.924 42.08C115.058 41.8667 115.151 41.76 115.204 41.76C115.364 41.76 115.444 41.9867 115.444 42.44C115.444 42.6533 115.404 42.9067 115.324 43.2C115.271 43.4667 115.178 43.72 115.044 43.96C114.671 44.6 114.231 45.3067 113.724 46.08C113.218 46.8533 112.698 47.6 112.164 48.32C111.791 48.8267 111.298 49.3867 110.684 50C110.071 50.6133 109.418 51.1467 108.724 51.6C108.031 52.0267 107.364 52.24 106.724 52.24ZM125.716 52.24C124.89 52.24 124.316 51.92 123.996 51.28C123.703 50.64 123.556 49.8533 123.556 48.92C123.556 48.0667 123.636 47.2267 123.796 46.4C123.876 46.0267 123.956 45.6533 124.036 45.28C124.143 44.88 124.263 44.4667 124.396 44.04C123.943 44.8667 123.463 45.6667 122.956 46.44C122.476 47.2133 121.983 47.8933 121.476 48.48C120.623 49.52 119.716 50.3867 118.756 51.08C117.823 51.7733 116.89 52.12 115.956 52.12C115.21 52.12 114.57 51.8533 114.036 51.32C113.53 50.76 113.276 49.8 113.276 48.44C113.276 47.0533 113.516 45.6267 113.996 44.16C114.476 42.6933 115.143 41.3333 115.996 40.08C116.876 38.8 117.903 37.7733 119.076 37C120.276 36.2267 121.583 35.84 122.996 35.84C123.45 35.84 123.943 35.9067 124.476 36.04C125.01 36.1733 125.503 36.4267 125.956 36.8C126.41 37.1467 126.716 37.64 126.876 38.28C126.903 38.2267 126.93 38.1867 126.956 38.16C127.01 38.1333 127.05 38.1067 127.076 38.08C127.45 37.4933 127.876 37 128.356 36.6C128.836 36.2 129.37 36 129.956 36C130.25 36 130.663 36.0133 131.196 36.04C131.73 36.0667 132.116 36.0667 132.356 36.04C132.223 36.1467 132.036 36.36 131.796 36.68C131.583 37 131.383 37.3333 131.196 37.68C131.01 38 130.863 38.2533 130.756 38.44C130.036 39.8267 129.383 41.2 128.796 42.56C128.21 43.92 127.756 45.2267 127.436 46.48C127.356 46.7467 127.303 47 127.276 47.24C127.25 47.4533 127.236 47.6667 127.236 47.88C127.236 48.5733 127.463 48.92 127.916 48.92C128.343 48.92 128.876 48.6533 129.516 48.12C130.45 47.3733 131.263 46.44 131.956 45.32C132.676 44.2 133.303 43.12 133.836 42.08C133.943 41.8933 134.036 41.8 134.116 41.8C134.276 41.8 134.356 42.0267 134.356 42.48C134.356 42.6933 134.316 42.9333 134.236 43.2C134.183 43.4667 134.09 43.72 133.956 43.96C133.583 44.6 133.09 45.3867 132.476 46.32C131.89 47.2533 131.223 48.1733 130.476 49.08C129.73 49.96 128.943 50.7067 128.116 51.32C127.316 51.9333 126.516 52.24 125.716 52.24ZM117.756 48.76C117.836 48.7867 117.956 48.8 118.116 48.8C118.623 48.8 119.17 48.5867 119.756 48.16C120.343 47.7333 120.93 47.1867 121.516 46.52C122.103 45.8267 122.623 45.1333 123.076 44.44C124.25 42.5733 125.116 41.1733 125.676 40.24C126.236 39.3067 126.556 38.7733 126.636 38.64C126.503 38.1867 126.263 37.8533 125.916 37.64C125.596 37.4267 125.21 37.32 124.756 37.32C124.17 37.32 123.543 37.48 122.876 37.8C122.236 38.12 121.69 38.5067 121.236 38.96C120.543 39.6533 119.876 40.5467 119.236 41.64C118.623 42.7333 118.116 43.8133 117.716 44.88C117.343 45.9467 117.156 46.84 117.156 47.56C117.156 48.2267 117.356 48.6267 117.756 48.76ZM135.663 52.24C134.889 52.24 134.303 51.9333 133.903 51.32C133.716 51.0267 133.583 50.68 133.503 50.28C133.423 49.88 133.383 49.4667 133.383 49.04C133.383 48.6133 133.409 48.1867 133.463 47.76C133.516 47.3067 133.583 46.8667 133.663 46.44C133.796 45.7467 133.943 45.12 134.103 44.56C134.289 43.9733 134.476 43.4133 134.663 42.88V42.84C134.449 43.24 134.183 43.68 133.863 44.16C133.543 44.6133 133.316 44.9467 133.183 45.16C132.996 45.4533 132.849 45.6 132.743 45.6C132.636 45.6 132.583 45.48 132.583 45.24C132.583 44.7067 132.743 44.12 133.063 43.48C133.276 43.0533 133.569 42.5067 133.943 41.84C134.316 41.1467 134.703 40.4 135.103 39.6C135.503 38.8 135.849 38.0267 136.143 37.28H133.463C133.329 37.28 133.303 37.1733 133.383 36.96C133.463 36.7467 133.583 36.5467 133.743 36.36C133.903 36.1467 134.023 36.04 134.103 36.04H137.143C137.436 35.3467 137.769 34.6 138.143 33.8C138.543 33 138.983 32.2533 139.463 31.56C139.969 30.84 140.516 30.2533 141.103 29.8C141.689 29.3467 142.316 29.12 142.983 29.12C143.276 29.12 143.636 29.12 144.063 29.12C144.516 29.12 144.796 29.1067 144.903 29.08C144.343 29.4533 143.689 30.2 142.943 31.32C142.196 32.4133 141.383 33.9867 140.503 36.04H144.543C144.623 36.04 144.596 36.1467 144.463 36.36C144.329 36.5467 144.156 36.7467 143.943 36.96C143.756 37.1733 143.569 37.28 143.383 37.28H139.943C139.596 38.16 139.209 39.12 138.783 40.16C138.383 41.2 138.009 42.2267 137.663 43.24C137.343 44.2267 137.103 45.1333 136.942 45.96C136.836 46.4667 136.783 46.9333 136.783 47.36C136.783 48.3733 137.103 48.88 137.743 48.88C138.169 48.88 138.676 48.6667 139.263 48.24C139.849 47.8133 140.436 47.2267 141.023 46.48C141.556 45.7867 142.063 45.04 142.543 44.24C143.049 43.44 143.476 42.7067 143.823 42.04C143.929 41.8533 144.023 41.76 144.103 41.76C144.263 41.76 144.343 41.9733 144.343 42.4C144.343 42.6133 144.303 42.8667 144.223 43.16C144.169 43.4267 144.063 43.6933 143.903 43.96C143.529 44.6 143.089 45.3067 142.583 46.08C142.076 46.8267 141.556 47.5733 141.023 48.32C140.649 48.8 140.156 49.3467 139.543 49.96C138.956 50.5733 138.316 51.1067 137.623 51.56C136.956 52.0133 136.303 52.24 135.663 52.24ZM151.143 32.8C150.45 32.56 150.103 32.1067 150.103 31.44C150.103 30.8267 150.343 30.2 150.823 29.56C151.33 28.8933 151.877 28.4667 152.463 28.28C152.597 28.2267 152.703 28.2 152.783 28.2C152.89 28.2 152.997 28.2 153.103 28.2C153.557 28.2 153.93 28.3333 154.223 28.6C154.517 28.8667 154.663 29.1733 154.663 29.52C154.663 30 154.41 30.4 153.903 30.72C153.503 30.6667 153.117 30.76 152.743 31C152.37 31.24 152.037 31.5333 151.743 31.88C151.477 32.2267 151.277 32.5333 151.143 32.8ZM144.263 52.24C143.917 52.24 143.583 52.16 143.263 52C142.943 51.8667 142.677 51.5867 142.463 51.16C142.17 50.52 142.023 49.76 142.023 48.88C142.023 47.92 142.17 46.8533 142.463 45.68C142.757 44.48 143.143 43.2533 143.623 42C143.81 41.5467 144.05 40.9867 144.343 40.32C144.637 39.6533 144.983 38.9867 145.383 38.32C145.783 37.6533 146.237 37.1067 146.743 36.68C147.277 36.2267 147.85 36 148.463 36C148.757 36 149.17 36.0133 149.703 36.04C150.237 36.0667 150.623 36.0667 150.863 36.04C150.703 36.1467 150.517 36.36 150.303 36.68C150.09 37 149.89 37.3333 149.703 37.68C149.517 38 149.37 38.2533 149.263 38.44C148.57 39.8267 147.917 41.2 147.303 42.56C146.69 43.92 146.223 45.2267 145.903 46.48C145.85 46.6933 145.81 46.9067 145.783 47.12C145.757 47.3333 145.743 47.5333 145.743 47.72C145.743 48.4933 145.997 48.88 146.503 48.88C146.717 48.88 146.943 48.8267 147.183 48.72C147.45 48.5867 147.757 48.3867 148.103 48.12C148.717 47.64 149.25 47.0933 149.703 46.48C150.237 45.7867 150.743 45.0533 151.223 44.28C151.703 43.48 152.117 42.7467 152.463 42.08C152.597 41.8667 152.69 41.76 152.743 41.76C152.903 41.76 152.983 41.9867 152.983 42.44C152.983 42.6533 152.943 42.9067 152.863 43.2C152.81 43.4667 152.717 43.72 152.583 43.96C152.21 44.6 151.77 45.3067 151.263 46.08C150.757 46.8533 150.237 47.6 149.703 48.32C149.33 48.8267 148.837 49.3867 148.223 50C147.61 50.6133 146.957 51.1467 146.263 51.6C145.57 52.0267 144.903 52.24 144.263 52.24ZM155.615 52.32C154.389 52.32 153.322 51.9333 152.415 51.16C151.535 50.3867 151.095 49.1467 151.095 47.44C151.095 46.1867 151.322 44.88 151.775 43.52C152.229 42.16 152.869 40.8933 153.695 39.72C154.549 38.5467 155.575 37.5867 156.775 36.84C157.975 36.0933 159.322 35.72 160.815 35.72C162.042 35.72 162.989 35.96 163.655 36.44C164.349 36.8933 164.842 37.5067 165.135 38.28C165.429 39.0533 165.575 39.88 165.575 40.76C165.575 41.4267 165.495 42.1067 165.335 42.8C165.202 43.4667 165.002 44.1333 164.735 44.8C165.189 45.3333 165.762 45.6 166.455 45.6C167.202 45.6 167.895 45.32 168.535 44.76C168.909 44.44 169.242 44.04 169.535 43.56C169.855 43.0533 170.135 42.5867 170.375 42.16C170.455 42 170.549 41.92 170.655 41.92C170.789 41.92 170.855 42.1067 170.855 42.48C170.855 42.72 170.815 43 170.735 43.32C170.682 43.64 170.549 43.96 170.335 44.28C169.935 44.9733 169.522 45.5067 169.095 45.88C168.669 46.2267 168.189 46.5067 167.655 46.72C167.255 46.88 166.829 46.96 166.375 46.96C165.549 46.96 164.802 46.7067 164.135 46.2C163.922 46.6533 163.655 47.12 163.335 47.6C162.562 48.9067 161.562 50.0267 160.335 50.96C159.109 51.8667 157.535 52.32 155.615 52.32ZM157.135 50.8C157.749 50.8 158.335 50.6 158.895 50.2C159.482 49.7733 160.015 49.2533 160.495 48.64C160.975 48.0267 161.389 47.3867 161.735 46.72C162.109 46.0533 162.415 45.4667 162.655 44.96C161.749 44.1867 161.295 43.2133 161.295 42.04C161.295 41.2667 161.509 40.6667 161.935 40.24C162.362 39.8133 162.949 39.6267 163.695 39.68C163.669 39.0667 163.509 38.56 163.215 38.16C162.922 37.76 162.442 37.56 161.775 37.56C161.162 37.56 160.575 37.7467 160.015 38.12C159.482 38.4933 158.975 38.9733 158.495 39.56C158.042 40.12 157.629 40.7067 157.255 41.32C156.909 41.9067 156.615 42.44 156.375 42.92C156.029 43.6133 155.709 44.4533 155.415 45.44C155.122 46.4267 154.975 47.3467 154.975 48.2C154.975 48.9467 155.122 49.5733 155.415 50.08C155.735 50.56 156.309 50.8 157.135 50.8ZM179.664 52.24C178.757 52.24 178.131 51.9733 177.784 51.44C177.464 50.88 177.304 50.24 177.304 49.52C177.304 48.64 177.477 47.5867 177.824 46.36C178.171 45.1067 178.571 43.8533 179.024 42.6C179.504 41.32 179.931 40.1867 180.304 39.2C180.411 38.96 180.464 38.7067 180.464 38.44C180.464 38.1467 180.371 37.9333 180.184 37.8C179.997 37.6667 179.757 37.6 179.464 37.6C179.037 37.6 178.557 37.7333 178.024 38C177.197 38.4267 176.411 39.1067 175.664 40.04C174.917 40.9733 174.317 41.9467 173.864 42.96C173.357 44.1067 172.904 45.2533 172.504 46.4C172.104 47.5467 171.784 48.48 171.544 49.2C171.384 49.6533 171.237 50.12 171.104 50.6C170.971 51.08 170.837 51.5467 170.704 52H166.824C166.824 52 166.917 51.6667 167.104 51C167.264 50.3333 167.477 49.6667 167.744 49C168.197 47.8267 168.651 46.6533 169.104 45.48C169.584 44.3067 169.997 43.2667 170.344 42.36C170.451 42.0933 170.611 41.6 170.824 40.88C171.064 40.1333 171.277 39.36 171.464 38.56C171.677 37.76 171.784 37.1067 171.784 36.6C171.784 36.3067 171.744 36.1067 171.664 36C171.904 36 172.171 36 172.464 36C172.784 35.9733 173.077 35.96 173.344 35.96C173.717 35.96 174.064 35.9733 174.384 36C174.731 36.0267 174.957 36.0933 175.064 36.2C175.384 36.44 175.544 36.7867 175.544 37.24C175.544 37.56 175.477 37.88 175.344 38.2C175.237 38.52 175.157 38.7867 175.104 39C175.477 38.6533 175.864 38.32 176.264 38C176.664 37.68 177.277 37.2667 178.104 36.76C178.584 36.4667 179.184 36.2267 179.904 36.04C180.624 35.8533 181.277 35.76 181.864 35.76C183.384 35.76 184.144 36.4667 184.144 37.88C184.144 38.12 184.117 38.3867 184.064 38.68C184.037 38.9733 183.957 39.2933 183.824 39.64C183.691 40.0667 183.477 40.6533 183.184 41.4C182.891 42.1467 182.584 42.9467 182.264 43.8C181.971 44.6267 181.717 45.4133 181.504 46.16C181.291 46.9067 181.184 47.5067 181.184 47.96C181.184 48.6 181.424 48.92 181.904 48.92C182.331 48.92 182.864 48.6533 183.504 48.12C184.117 47.6133 184.651 47.0667 185.104 46.48C185.664 45.7867 186.171 45.0533 186.624 44.28C187.104 43.48 187.517 42.7467 187.864 42.08C187.997 41.8667 188.091 41.76 188.144 41.76C188.304 41.76 188.384 41.9867 188.384 42.44C188.384 42.6533 188.344 42.9067 188.264 43.2C188.211 43.4667 188.117 43.72 187.984 43.96C187.611 44.6 187.171 45.3067 186.664 46.08C186.157 46.8533 185.637 47.6 185.104 48.32C184.731 48.8267 184.237 49.3867 183.624 50C183.011 50.6133 182.357 51.1467 181.664 51.6C180.971 52.0267 180.304 52.24 179.664 52.24ZM244.232 52.24C243.405 52.24 242.832 51.92 242.512 51.28C242.219 50.64 242.072 49.8533 242.072 48.92C242.072 48.0667 242.152 47.2267 242.312 46.4C242.392 46.0267 242.472 45.6533 242.552 45.28C242.659 44.88 242.779 44.4667 242.912 44.04C242.459 44.8667 241.979 45.6667 241.472 46.44C240.992 47.2133 240.499 47.8933 239.992 48.48C239.139 49.52 238.232 50.3867 237.272 51.08C236.339 51.7733 235.405 52.12 234.472 52.12C233.725 52.12 233.085 51.8533 232.552 51.32C232.045 50.76 231.792 49.8 231.792 48.44C231.792 47.0533 232.032 45.6267 232.512 44.16C232.992 42.6933 233.659 41.3333 234.512 40.08C235.392 38.8 236.419 37.7733 237.592 37C238.792 36.2267 240.099 35.84 241.512 35.84C241.965 35.84 242.459 35.9067 242.992 36.04C243.525 36.1733 244.019 36.4267 244.472 36.8C244.925 37.1467 245.232 37.64 245.392 38.28C245.419 38.2267 245.445 38.1867 245.472 38.16C245.525 38.1333 245.565 38.1067 245.592 38.08C245.965 37.4933 246.392 37 246.872 36.6C247.352 36.2 247.885 36 248.472 36C248.765 36 249.179 36.0133 249.712 36.04C250.245 36.0667 250.632 36.0667 250.872 36.04C250.739 36.1467 250.552 36.36 250.312 36.68C250.099 37 249.899 37.3333 249.712 37.68C249.525 38 249.379 38.2533 249.272 38.44C248.552 39.8267 247.899 41.2 247.312 42.56C246.725 43.92 246.272 45.2267 245.952 46.48C245.872 46.7467 245.819 47 245.792 47.24C245.765 47.4533 245.752 47.6667 245.752 47.88C245.752 48.5733 245.979 48.92 246.432 48.92C246.859 48.92 247.392 48.6533 248.032 48.12C248.965 47.3733 249.779 46.44 250.472 45.32C251.192 44.2 251.819 43.12 252.352 42.08C252.459 41.8933 252.552 41.8 252.632 41.8C252.792 41.8 252.872 42.0267 252.872 42.48C252.872 42.6933 252.832 42.9333 252.752 43.2C252.699 43.4667 252.605 43.72 252.472 43.96C252.099 44.6 251.605 45.3867 250.992 46.32C250.405 47.2533 249.739 48.1733 248.992 49.08C248.245 49.96 247.459 50.7067 246.632 51.32C245.832 51.9333 245.032 52.24 244.232 52.24ZM236.272 48.76C236.352 48.7867 236.472 48.8 236.632 48.8C237.139 48.8 237.685 48.5867 238.272 48.16C238.859 47.7333 239.445 47.1867 240.032 46.52C240.619 45.8267 241.139 45.1333 241.592 44.44C242.765 42.5733 243.632 41.1733 244.192 40.24C244.752 39.3067 245.072 38.7733 245.152 38.64C245.019 38.1867 244.779 37.8533 244.432 37.64C244.112 37.4267 243.725 37.32 243.272 37.32C242.685 37.32 242.059 37.48 241.392 37.8C240.752 38.12 240.205 38.5067 239.752 38.96C239.059 39.6533 238.392 40.5467 237.752 41.64C237.139 42.7333 236.632 43.8133 236.232 44.88C235.859 45.9467 235.672 46.84 235.672 47.56C235.672 48.2267 235.872 48.6267 236.272 48.76ZM257.538 52.28C256.685 52.28 256.071 51.92 255.698 51.2C255.405 50.56 255.258 49.8 255.258 48.92C255.258 47.9333 255.405 46.84 255.698 45.64C255.991 44.44 256.391 43.2133 256.898 41.96C257.085 41.5067 257.325 40.9333 257.618 40.24C257.938 39.5467 258.311 38.8667 258.738 38.2C258.365 38.52 257.925 38.7867 257.418 39C256.911 39.1867 256.418 39.28 255.938 39.28C255.565 39.28 255.258 39.2267 255.018 39.12C254.805 39.5467 254.458 40.24 253.978 41.2C253.498 42.16 252.858 43.2933 252.058 44.6C251.978 44.7333 251.898 44.7333 251.818 44.6C251.765 44.44 251.738 44.2267 251.738 43.96C251.738 43.7467 251.765 43.52 251.818 43.28C251.871 43.04 251.951 42.8133 252.058 42.6C252.325 42.0933 252.591 41.5733 252.858 41.04C253.125 40.48 253.365 39.9867 253.578 39.56C253.791 39.1333 253.911 38.8667 253.938 38.76C253.458 38.52 253.098 38.1867 252.858 37.76C252.618 37.3067 252.498 36.8667 252.498 36.44C252.498 36.0133 252.591 35.6267 252.778 35.28C252.991 34.9333 253.298 34.6667 253.698 34.48C253.938 34.4 254.165 34.36 254.378 34.36C254.965 34.36 255.445 34.5467 255.818 34.92C255.791 35.0267 255.765 35.1467 255.738 35.28C255.738 35.3867 255.738 35.5067 255.738 35.64C255.738 36.4667 256.071 37.08 256.738 37.48C257.405 37.88 258.125 38.0267 258.898 37.92C259.271 37.3867 259.698 36.92 260.178 36.52C260.658 36.12 261.178 35.92 261.738 35.92C262.031 35.92 262.445 35.9333 262.978 35.96C263.538 35.9867 263.938 35.9867 264.178 35.96C264.018 36.0667 263.831 36.28 263.618 36.6C263.405 36.92 263.205 37.2533 263.018 37.6C262.831 37.9467 262.685 38.2133 262.578 38.4C261.858 39.7867 261.191 41.1733 260.578 42.56C259.965 43.92 259.498 45.2267 259.178 46.48C259.125 46.72 259.071 46.9467 259.018 47.16C258.991 47.3467 258.978 47.5467 258.978 47.76C258.978 48.56 259.245 48.96 259.778 48.96C260.151 48.96 260.685 48.6933 261.378 48.16C261.991 47.6533 262.538 47.0933 263.018 46.48C263.551 45.7867 264.058 45.04 264.538 44.24C265.018 43.44 265.431 42.7067 265.778 42.04C265.911 41.8267 266.005 41.72 266.058 41.72C266.218 41.72 266.298 41.96 266.298 42.44C266.298 42.6267 266.271 42.8533 266.218 43.12C266.165 43.3867 266.071 43.64 265.938 43.88C265.538 44.5467 265.085 45.28 264.578 46.08C264.071 46.8533 263.551 47.6133 263.018 48.36C262.671 48.84 262.178 49.3867 261.538 50C260.925 50.6133 260.258 51.1467 259.538 51.6C258.845 52.0533 258.178 52.28 257.538 52.28ZM268.897 52.32C267.67 52.32 266.603 51.9333 265.697 51.16C264.817 50.3867 264.377 49.1467 264.377 47.44C264.377 46.1867 264.603 44.88 265.057 43.52C265.51 42.16 266.15 40.8933 266.977 39.72C267.83 38.5467 268.857 37.5867 270.057 36.84C271.257 36.0933 272.603 35.72 274.097 35.72C275.323 35.72 276.27 35.96 276.937 36.44C277.63 36.8933 278.123 37.5067 278.417 38.28C278.71 39.0533 278.857 39.88 278.857 40.76C278.857 41.4267 278.777 42.1067 278.617 42.8C278.483 43.4667 278.283 44.1333 278.017 44.8C278.47 45.3333 279.043 45.6 279.737 45.6C280.483 45.6 281.177 45.32 281.817 44.76C282.19 44.44 282.523 44.04 282.817 43.56C283.137 43.0533 283.417 42.5867 283.657 42.16C283.737 42 283.83 41.92 283.937 41.92C284.07 41.92 284.137 42.1067 284.137 42.48C284.137 42.72 284.097 43 284.017 43.32C283.963 43.64 283.83 43.96 283.617 44.28C283.217 44.9733 282.803 45.5067 282.377 45.88C281.95 46.2267 281.47 46.5067 280.937 46.72C280.537 46.88 280.11 46.96 279.657 46.96C278.83 46.96 278.083 46.7067 277.417 46.2C277.203 46.6533 276.937 47.12 276.617 47.6C275.843 48.9067 274.843 50.0267 273.617 50.96C272.39 51.8667 270.817 52.32 268.897 52.32ZM270.417 50.8C271.03 50.8 271.617 50.6 272.177 50.2C272.763 49.7733 273.297 49.2533 273.777 48.64C274.257 48.0267 274.67 47.3867 275.017 46.72C275.39 46.0533 275.697 45.4667 275.937 44.96C275.03 44.1867 274.577 43.2133 274.577 42.04C274.577 41.2667 274.79 40.6667 275.217 40.24C275.643 39.8133 276.23 39.6267 276.977 39.68C276.95 39.0667 276.79 38.56 276.497 38.16C276.203 37.76 275.723 37.56 275.057 37.56C274.443 37.56 273.857 37.7467 273.297 38.12C272.763 38.4933 272.257 38.9733 271.777 39.56C271.323 40.12 270.91 40.7067 270.537 41.32C270.19 41.9067 269.897 42.44 269.657 42.92C269.31 43.6133 268.99 44.4533 268.697 45.44C268.403 46.4267 268.257 47.3467 268.257 48.2C268.257 48.9467 268.403 49.5733 268.697 50.08C269.017 50.56 269.59 50.8 270.417 50.8ZM286.451 52.4C285.197 52.4 284.184 52.1733 283.411 51.72C282.637 51.24 282.077 50.6133 281.731 49.84C281.411 49.04 281.251 48.1867 281.251 47.28C281.251 46.3733 281.384 45.4533 281.651 44.52C281.917 43.5867 282.277 42.7067 282.731 41.88C283.664 40.2 284.811 38.8133 286.171 37.72C287.557 36.6267 289.251 36.08 291.251 36.08C292.504 36.08 293.477 36.4 294.171 37.04C294.864 37.68 295.211 38.4267 295.211 39.28C295.211 40.08 294.971 40.8133 294.491 41.48C294.037 42.1467 293.424 42.48 292.651 42.48C292.224 42.48 291.851 42.36 291.531 42.12C291.211 41.88 291.051 41.5067 291.051 41C291.051 40.92 291.051 40.84 291.051 40.76C291.077 40.6533 291.104 40.5467 291.131 40.44C291.291 40.4133 291.517 40.3733 291.811 40.32C292.131 40.24 292.384 40.0533 292.571 39.76C292.917 39.28 293.091 38.8 293.091 38.32C293.091 38.0267 292.997 37.7867 292.811 37.6C292.651 37.3867 292.371 37.28 291.971 37.28C291.251 37.28 290.517 37.5467 289.771 38.08C289.024 38.5867 288.317 39.2667 287.651 40.12C287.011 40.9733 286.451 41.9067 285.971 42.92C285.224 44.5467 284.851 46.04 284.851 47.4C284.851 48.3867 285.077 49.2 285.531 49.84C285.984 50.4533 286.704 50.76 287.691 50.76C288.944 50.76 290.117 50.3333 291.211 49.48C292.331 48.6 293.331 47.5867 294.211 46.44C294.797 45.6933 295.317 44.9333 295.771 44.16C296.251 43.3867 296.651 42.68 296.971 42.04C297.077 41.8533 297.171 41.76 297.251 41.76C297.411 41.76 297.491 41.9867 297.491 42.44C297.491 42.6533 297.451 42.9067 297.371 43.2C297.317 43.4667 297.224 43.72 297.091 43.96C296.637 44.7067 296.171 45.4533 295.691 46.2C295.237 46.9467 294.744 47.6533 294.211 48.32C293.304 49.4933 292.237 50.4667 291.011 51.24C289.784 52.0133 288.264 52.4 286.451 52.4ZM307.787 52.24C306.96 52.24 306.387 51.92 306.067 51.28C305.773 50.64 305.627 49.8533 305.627 48.92C305.627 48.0667 305.707 47.2267 305.867 46.4C305.947 46.0267 306.027 45.6533 306.107 45.28C306.213 44.88 306.333 44.4667 306.467 44.04C306.013 44.8667 305.533 45.6667 305.027 46.44C304.547 47.2133 304.053 47.8933 303.547 48.48C302.693 49.52 301.787 50.3867 300.827 51.08C299.893 51.7733 298.96 52.12 298.027 52.12C297.28 52.12 296.64 51.8533 296.107 51.32C295.6 50.76 295.347 49.8 295.347 48.44C295.347 47.0533 295.587 45.6267 296.067 44.16C296.547 42.6933 297.213 41.3333 298.067 40.08C298.947 38.8 299.973 37.7733 301.147 37C302.347 36.2267 303.653 35.84 305.067 35.84C305.52 35.84 306.013 35.9067 306.547 36.04C307.08 36.1733 307.573 36.4267 308.027 36.8C308.48 37.1467 308.787 37.64 308.947 38.28C308.973 38.2267 309 38.1867 309.027 38.16C309.08 38.1333 309.12 38.1067 309.147 38.08C309.52 37.4933 309.947 37 310.427 36.6C310.907 36.2 311.44 36 312.027 36C312.32 36 312.733 36.0133 313.267 36.04C313.8 36.0667 314.187 36.0667 314.427 36.04C314.293 36.1467 314.107 36.36 313.867 36.68C313.653 37 313.453 37.3333 313.267 37.68C313.08 38 312.933 38.2533 312.827 38.44C312.107 39.8267 311.453 41.2 310.867 42.56C310.28 43.92 309.827 45.2267 309.507 46.48C309.427 46.7467 309.373 47 309.347 47.24C309.32 47.4533 309.307 47.6667 309.307 47.88C309.307 48.5733 309.533 48.92 309.987 48.92C310.413 48.92 310.947 48.6533 311.587 48.12C312.52 47.3733 313.333 46.44 314.027 45.32C314.747 44.2 315.373 43.12 315.907 42.08C316.013 41.8933 316.107 41.8 316.187 41.8C316.347 41.8 316.427 42.0267 316.427 42.48C316.427 42.6933 316.387 42.9333 316.307 43.2C316.253 43.4667 316.16 43.72 316.027 43.96C315.653 44.6 315.16 45.3867 314.547 46.32C313.96 47.2533 313.293 48.1733 312.547 49.08C311.8 49.96 311.013 50.7067 310.187 51.32C309.387 51.9333 308.587 52.24 307.787 52.24ZM299.827 48.76C299.907 48.7867 300.027 48.8 300.187 48.8C300.693 48.8 301.24 48.5867 301.827 48.16C302.413 47.7333 303 47.1867 303.587 46.52C304.173 45.8267 304.693 45.1333 305.147 44.44C306.32 42.5733 307.187 41.1733 307.747 40.24C308.307 39.3067 308.627 38.7733 308.707 38.64C308.573 38.1867 308.333 37.8533 307.987 37.64C307.667 37.4267 307.28 37.32 306.827 37.32C306.24 37.32 305.613 37.48 304.947 37.8C304.307 38.12 303.76 38.5067 303.307 38.96C302.613 39.6533 301.947 40.5467 301.307 41.64C300.693 42.7333 300.187 43.8133 299.787 44.88C299.413 45.9467 299.227 46.84 299.227 47.56C299.227 48.2267 299.427 48.6267 299.827 48.76ZM323.253 32.8C322.559 32.56 322.213 32.1067 322.213 31.44C322.213 30.8267 322.453 30.2 322.933 29.56C323.439 28.8933 323.986 28.4667 324.573 28.28C324.706 28.2267 324.813 28.2 324.893 28.2C324.999 28.2 325.106 28.2 325.213 28.2C325.666 28.2 326.039 28.3333 326.333 28.6C326.626 28.8667 326.773 29.1733 326.773 29.52C326.773 30 326.519 30.4 326.013 30.72C325.613 30.6667 325.226 30.76 324.853 31C324.479 31.24 324.146 31.5333 323.853 31.88C323.586 32.2267 323.386 32.5333 323.253 32.8ZM316.373 52.24C316.026 52.24 315.693 52.16 315.373 52C315.053 51.8667 314.786 51.5867 314.573 51.16C314.279 50.52 314.133 49.76 314.133 48.88C314.133 47.92 314.279 46.8533 314.573 45.68C314.866 44.48 315.253 43.2533 315.733 42C315.919 41.5467 316.159 40.9867 316.453 40.32C316.746 39.6533 317.093 38.9867 317.493 38.32C317.893 37.6533 318.346 37.1067 318.853 36.68C319.386 36.2267 319.959 36 320.573 36C320.866 36 321.279 36.0133 321.813 36.04C322.346 36.0667 322.733 36.0667 322.973 36.04C322.813 36.1467 322.626 36.36 322.413 36.68C322.199 37 321.999 37.3333 321.813 37.68C321.626 38 321.479 38.2533 321.373 38.44C320.679 39.8267 320.026 41.2 319.413 42.56C318.799 43.92 318.333 45.2267 318.013 46.48C317.959 46.6933 317.919 46.9067 317.893 47.12C317.866 47.3333 317.853 47.5333 317.853 47.72C317.853 48.4933 318.106 48.88 318.613 48.88C318.826 48.88 319.053 48.8267 319.293 48.72C319.559 48.5867 319.866 48.3867 320.213 48.12C320.826 47.64 321.359 47.0933 321.813 46.48C322.346 45.7867 322.853 45.0533 323.333 44.28C323.813 43.48 324.226 42.7467 324.573 42.08C324.706 41.8667 324.799 41.76 324.853 41.76C325.013 41.76 325.093 41.9867 325.093 42.44C325.093 42.6533 325.053 42.9067 324.973 43.2C324.919 43.4667 324.826 43.72 324.693 43.96C324.319 44.6 323.879 45.3067 323.373 46.08C322.866 46.8533 322.346 47.6 321.813 48.32C321.439 48.8267 320.946 49.3867 320.333 50C319.719 50.6133 319.066 51.1467 318.373 51.6C317.679 52.0267 317.013 52.24 316.373 52.24ZM333.805 52.24C332.898 52.24 332.271 51.9733 331.925 51.44C331.605 50.88 331.445 50.24 331.445 49.52C331.445 48.64 331.618 47.5867 331.965 46.36C332.311 45.1067 332.711 43.8533 333.165 42.6C333.645 41.32 334.071 40.1867 334.445 39.2C334.551 38.96 334.605 38.7067 334.605 38.44C334.605 38.1467 334.511 37.9333 334.325 37.8C334.138 37.6667 333.898 37.6 333.605 37.6C333.178 37.6 332.698 37.7333 332.165 38C331.338 38.4267 330.551 39.1067 329.805 40.04C329.058 40.9733 328.458 41.9467 328.005 42.96C327.498 44.1067 327.045 45.2533 326.645 46.4C326.245 47.5467 325.925 48.48 325.685 49.2C325.525 49.6533 325.378 50.12 325.245 50.6C325.111 51.08 324.978 51.5467 324.845 52H320.965C320.965 52 321.058 51.6667 321.245 51C321.405 50.3333 321.618 49.6667 321.885 49C322.338 47.8267 322.791 46.6533 323.245 45.48C323.725 44.3067 324.138 43.2667 324.485 42.36C324.591 42.0933 324.751 41.6 324.965 40.88C325.205 40.1333 325.418 39.36 325.605 38.56C325.818 37.76 325.925 37.1067 325.925 36.6C325.925 36.3067 325.885 36.1067 325.805 36C326.045 36 326.311 36 326.605 36C326.925 35.9733 327.218 35.96 327.485 35.96C327.858 35.96 328.205 35.9733 328.525 36C328.871 36.0267 329.098 36.0933 329.205 36.2C329.525 36.44 329.685 36.7867 329.685 37.24C329.685 37.56 329.618 37.88 329.485 38.2C329.378 38.52 329.298 38.7867 329.245 39C329.618 38.6533 330.005 38.32 330.405 38C330.805 37.68 331.418 37.2667 332.245 36.76C332.725 36.4667 333.325 36.2267 334.045 36.04C334.765 35.8533 335.418 35.76 336.005 35.76C337.525 35.76 338.285 36.4667 338.285 37.88C338.285 38.12 338.258 38.3867 338.205 38.68C338.178 38.9733 338.098 39.2933 337.965 39.64C337.831 40.0667 337.618 40.6533 337.325 41.4C337.031 42.1467 336.725 42.9467 336.405 43.8C336.111 44.6267 335.858 45.4133 335.645 46.16C335.431 46.9067 335.325 47.5067 335.325 47.96C335.325 48.6 335.565 48.92 336.045 48.92C336.471 48.92 337.005 48.6533 337.645 48.12C338.258 47.6133 338.791 47.0667 339.245 46.48C339.805 45.7867 340.311 45.0533 340.765 44.28C341.245 43.48 341.658 42.7467 342.005 42.08C342.138 41.8667 342.231 41.76 342.285 41.76C342.445 41.76 342.525 41.9867 342.525 42.44C342.525 42.6533 342.485 42.9067 342.405 43.2C342.351 43.4667 342.258 43.72 342.125 43.96C341.751 44.6 341.311 45.3067 340.805 46.08C340.298 46.8533 339.778 47.6 339.245 48.32C338.871 48.8267 338.378 49.3867 337.765 50C337.151 50.6133 336.498 51.1467 335.805 51.6C335.111 52.0267 334.445 52.24 333.805 52.24ZM349.907 51.44C348.68 52.08 347.387 52.4 346.027 52.4C344.88 52.4 343.813 52.12 342.827 51.56C341.84 51 341.173 50.1067 340.827 48.88C340.667 48.32 340.587 47.7333 340.587 47.12C340.587 46.1067 340.76 45.0667 341.107 44C341.48 42.9067 341.96 41.9067 342.547 41C343.453 39.5867 344.6 38.4133 345.987 37.48C347.373 36.5467 348.907 36.08 350.587 36.08C351.84 36.08 352.813 36.4 353.507 37.04C354.2 37.68 354.547 38.4267 354.547 39.28C354.547 40.2933 354.2 41.1867 353.507 41.96C352.84 42.7067 351.96 43.28 350.867 43.68C350.333 43.8667 349.76 44.0133 349.147 44.12C348.56 44.2 348 44.24 347.467 44.24C346.373 44.24 345.533 44.0933 344.947 43.8C344.44 45.1067 344.187 46.3067 344.187 47.4C344.187 48.3867 344.413 49.2 344.867 49.84C345.32 50.4533 346.04 50.76 347.027 50.76C347.853 50.76 348.667 50.5333 349.467 50.08C350.293 49.6267 351.053 49.0667 351.747 48.4C352.467 47.7333 353.067 47.0933 353.547 46.48C353.92 46.0267 354.24 45.6 354.507 45.2C354.773 44.8 355.053 44.3467 355.347 43.84C355.64 43.3067 355.987 42.6533 356.387 41.88C356.493 41.6933 356.587 41.6 356.667 41.6C356.827 41.6 356.907 41.8133 356.907 42.24C356.907 42.48 356.867 42.7467 356.787 43.04C356.733 43.3067 356.627 43.5867 356.467 43.88C356.093 44.5467 355.64 45.28 355.107 46.08C354.6 46.8533 354.08 47.6 353.547 48.32C353.067 48.96 352.52 49.5467 351.907 50.08C351.293 50.6133 350.627 51.0667 349.907 51.44ZM346.267 42.92C346.4 43 346.547 43.0533 346.707 43.08C346.867 43.1067 347.027 43.12 347.187 43.12C347.72 43.12 348.253 43 348.787 42.76C349.32 42.4933 349.773 42.2267 350.147 41.96C350.76 41.5333 351.28 41.0267 351.707 40.44C352.133 39.8533 352.373 39.1867 352.427 38.44C352.453 38.12 352.373 37.8533 352.187 37.64C352.027 37.4 351.733 37.28 351.307 37.28C351.093 37.28 350.827 37.32 350.507 37.4C350.08 37.5067 349.653 37.7067 349.227 38C348.8 38.2933 348.387 38.64 347.987 39.04C347.853 39.1733 347.613 39.44 347.267 39.84C346.947 40.2133 346.64 40.64 346.347 41.12C346.053 41.5733 345.907 41.9733 345.907 42.32C345.907 42.6133 346.027 42.8133 346.267 42.92Z" fill="#F5F5F5"/>
<path d="M27.7976 13.7602C32.9804 17.7341 22.3325 17.6632 15.591 22.4778C8.84942 27.2925 8.56713 35.1695 3.38432 31.1955C-1.7985 27.2215 -0.5349 20.097 6.20664 15.2823C12.9482 10.4677 22.6148 9.78619 27.7976 13.7602Z" fill="#F5F5F5"/>
<path d="M40.9144 21.3995C35.4785 25.1838 35.6359 17.2475 29.1246 12.1258C22.6133 7.00405 11.899 6.63635 17.3349 2.85206C22.7708 -0.932229 32.4559 0.151992 38.9672 5.27373C45.4785 10.3955 46.3503 17.6152 40.9144 21.3995Z" fill="#FF0000"/>
</svg>
