<svg width="218" height="38" viewBox="0 0 218 38" fill="none" xmlns="http://www.w3.org/2000/svg">
<path d="M26.744 37.192C26.136 37.192 25.672 37.032 25.352 36.712C25.032 36.392 24.816 35.984 24.704 35.488C24.592 34.992 24.52 34.48 24.488 33.952C24.488 33.648 24.504 33.288 24.536 32.872C24.568 32.456 24.608 32.056 24.656 31.672C24.72 31.272 24.768 30.976 24.8 30.784H19.304C18.28 31.856 17.304 32.904 16.376 33.928C15.464 34.936 14.568 35.96 13.688 37H11.288C11.704 36.616 12.248 36.104 12.92 35.464C13.608 34.808 14.384 34.064 15.248 33.232C16.112 32.4 17.008 31.52 17.936 30.592C18.88 29.648 19.824 28.704 20.768 27.76C21.712 26.8 22.6 25.88 23.432 25C24.28 24.104 25.032 23.296 25.688 22.576C26.008 22.224 26.304 21.872 26.576 21.52C26.864 21.152 27.184 20.848 27.536 20.608C27.888 20.368 28.32 20.248 28.832 20.248H30.56C30.288 20.504 30.016 20.936 29.744 21.544C29.472 22.152 29.224 22.808 29 23.512C28.792 24.216 28.616 24.856 28.472 25.432C28.264 26.296 28.048 27.232 27.824 28.24C27.616 29.248 27.448 30.248 27.32 31.24C27.192 32.232 27.152 33.152 27.2 34C27.216 34.304 27.272 34.624 27.368 34.96C27.48 35.28 27.632 35.56 27.824 35.8C28.032 36.024 28.288 36.136 28.592 36.136C28.864 36.136 29.16 36.032 29.48 35.824L29.624 36.04C29.416 36.36 29.016 36.632 28.424 36.856C27.848 37.08 27.288 37.192 26.744 37.192ZM17.144 25.024C16.888 24.752 16.696 24.472 16.568 24.184C16.456 23.896 16.4 23.624 16.4 23.368C16.4 23.048 16.464 22.744 16.592 22.456C16.736 22.152 16.904 21.896 17.096 21.688C17.48 21.256 17.96 20.936 18.536 20.728C19.112 20.52 19.72 20.392 20.36 20.344C21.016 20.28 21.64 20.248 22.232 20.248H27.608C27.272 20.584 26.76 20.848 26.072 21.04C25.4 21.216 24.664 21.352 23.864 21.448C23.064 21.528 22.288 21.608 21.536 21.688C20.8 21.752 20.192 21.84 19.712 21.952C18.864 22.144 18.216 22.512 17.768 23.056C17.336 23.6 17.128 24.256 17.144 25.024ZM20.36 29.584H24.968C25.16 28.528 25.384 27.472 25.64 26.416C25.912 25.36 26.152 24.432 26.36 23.632C25.384 24.56 24.384 25.528 23.36 26.536C22.352 27.528 21.352 28.544 20.36 29.584ZM138.895 37.192C138.271 37.192 137.847 37.032 137.623 36.712C137.399 36.376 137.287 35.96 137.287 35.464C137.287 35.016 137.351 34.512 137.479 33.952C137.623 33.264 137.879 32.448 138.247 31.504C138.631 30.56 139.055 29.576 139.519 28.552C139.999 27.512 140.471 26.52 140.935 25.576C141.415 24.632 141.831 23.824 142.183 23.152C141.975 23.344 141.759 23.544 141.535 23.752C141.327 23.96 141.111 24.192 140.887 24.448C139.959 25.488 139.111 26.48 138.343 27.424C137.591 28.352 136.863 29.272 136.159 30.184C135.471 31.08 134.759 32 134.023 32.944C133.623 33.472 133.303 33.872 133.063 34.144C132.839 34.4 132.631 34.576 132.439 34.672C132.263 34.752 132.039 34.792 131.767 34.792C131.367 34.792 130.911 34.672 130.399 34.432C130.623 34.16 130.775 33.576 130.855 32.68C130.951 31.784 130.999 30.76 130.999 29.608C130.999 28.44 130.959 27.232 130.879 25.984C130.799 24.736 130.679 23.632 130.519 22.672C130.423 22.832 130.247 23.184 129.991 23.728C129.751 24.272 129.455 24.944 129.103 25.744C128.767 26.528 128.407 27.384 128.023 28.312C127.639 29.224 127.263 30.144 126.895 31.072C126.543 31.984 126.223 32.848 125.935 33.664C125.663 34.48 125.455 35.184 125.311 35.776C125.167 36.368 125.119 36.776 125.167 37H122.959C123.311 36.104 123.711 35.112 124.159 34.024C124.623 32.92 125.103 31.792 125.599 30.64C126.095 29.488 126.583 28.368 127.063 27.28C127.559 26.192 128.007 25.2 128.407 24.304C128.823 23.392 129.167 22.64 129.439 22.048C129.711 21.456 129.887 21.088 129.967 20.944C129.263 20.928 128.543 21 127.807 21.16C127.071 21.304 126.383 21.512 125.743 21.784C125.103 22.056 124.559 22.368 124.111 22.72C123.679 23.072 123.399 23.44 123.271 23.824C123.255 23.872 123.223 23.896 123.175 23.896C123.047 23.896 122.983 23.792 122.983 23.584C122.983 23.552 122.983 23.52 122.983 23.488C122.999 23.44 123.015 23.392 123.031 23.344C123.175 22.928 123.351 22.56 123.559 22.24C123.783 21.92 123.999 21.648 124.207 21.424C124.735 20.88 125.327 20.552 125.983 20.44C126.639 20.312 127.335 20.248 128.071 20.248H130.399C130.751 20.248 131.095 20.248 131.431 20.248C131.767 20.248 132.063 20.336 132.319 20.512C132.575 20.672 132.743 20.992 132.823 21.472C132.887 21.808 132.943 22.32 132.991 23.008C133.055 23.68 133.103 24.432 133.135 25.264C133.183 26.096 133.223 26.92 133.255 27.736C133.287 28.552 133.311 29.256 133.327 29.848C133.327 29.88 133.327 29.976 133.327 30.136C133.343 30.28 133.351 30.464 133.351 30.688C133.351 30.896 133.343 31.136 133.327 31.408C133.327 31.664 133.311 31.912 133.279 32.152C133.615 31.736 134.031 31.224 134.527 30.616C135.039 29.992 135.591 29.32 136.183 28.6C136.775 27.864 137.375 27.128 137.983 26.392C138.591 25.656 139.175 24.952 139.735 24.28C140.295 23.608 140.783 23.024 141.199 22.528C141.631 22.016 141.951 21.632 142.159 21.376C142.527 20.96 142.991 20.672 143.551 20.512C144.111 20.336 144.671 20.248 145.231 20.248H146.719C146.383 20.504 146.015 20.936 145.615 21.544C145.215 22.152 144.823 22.808 144.439 23.512C144.071 24.216 143.743 24.856 143.455 25.432C143.039 26.296 142.615 27.232 142.183 28.24C141.751 29.248 141.367 30.248 141.031 31.24C140.695 32.232 140.447 33.152 140.287 34C140.239 34.256 140.215 34.528 140.215 34.816C140.215 35.168 140.271 35.48 140.383 35.752C140.511 36.008 140.735 36.136 141.055 36.136C141.311 36.136 141.623 36.032 141.991 35.824H142.015C142.047 35.824 142.071 35.856 142.087 35.92C142.103 35.968 142.095 36.008 142.063 36.04C141.759 36.36 141.295 36.632 140.671 36.856C140.047 37.08 139.455 37.192 138.895 37.192Z" fill="#FF0000"/>
<path d="M32.768 37.48C32.224 37.48 31.712 37.408 31.232 37.264C30.752 37.12 30.36 36.896 30.056 36.592C29.752 36.288 29.6 35.904 29.6 35.44C29.6 35.088 29.704 34.744 29.912 34.408C30.136 34.072 30.448 33.904 30.848 33.904C31.024 33.904 31.184 33.944 31.328 34.024C31.472 34.104 31.568 34.208 31.616 34.336C31.6 34.352 31.56 34.408 31.496 34.504C31.432 34.584 31.392 34.64 31.376 34.672C31.232 34.96 31.16 35.224 31.16 35.464C31.16 35.8 31.28 36.072 31.52 36.28C31.776 36.488 32.104 36.592 32.504 36.592C33.032 36.576 33.488 36.392 33.872 36.04C34.272 35.672 34.472 35.24 34.472 34.744C34.472 34.456 34.408 34.184 34.28 33.928C34.072 33.496 33.792 33.128 33.44 32.824C33.104 32.504 32.776 32.184 32.456 31.864C32.152 31.544 31.928 31.16 31.784 30.712C31.72 30.504 31.688 30.248 31.688 29.944C31.688 29.64 31.728 29.344 31.808 29.056C31.888 28.752 32.008 28.496 32.168 28.288C32.392 27.984 32.728 27.704 33.176 27.448C33.736 27.144 34.392 26.992 35.144 26.992C35.64 26.992 36.08 27.056 36.464 27.184C36.752 27.28 37 27.44 37.208 27.664C37.432 27.872 37.544 28.152 37.544 28.504C37.544 28.904 37.416 29.288 37.16 29.656C36.92 30.008 36.568 30.224 36.104 30.304C35.816 30.336 35.56 30.288 35.336 30.16C35.112 30.016 35.032 29.752 35.096 29.368C35.528 29.272 35.84 29.096 36.032 28.84C36.128 28.696 36.176 28.552 36.176 28.408C36.176 28.136 36.064 27.952 35.84 27.856C35.632 27.744 35.432 27.688 35.24 27.688C35 27.688 34.768 27.72 34.544 27.784C34.336 27.832 34.144 27.92 33.968 28.048C33.616 28.352 33.44 28.704 33.44 29.104C33.44 29.168 33.448 29.24 33.464 29.32C33.496 29.4 33.52 29.48 33.536 29.56C33.616 29.768 33.736 29.96 33.896 30.136C34.056 30.312 34.216 30.464 34.376 30.592C34.776 30.88 35.184 31.192 35.6 31.528C36.032 31.864 36.352 32.272 36.56 32.752C36.72 33.088 36.8 33.432 36.8 33.784C36.8 34.264 36.68 34.704 36.44 35.104C36.2 35.488 35.928 35.792 35.624 36.016C36.152 35.792 36.664 35.4 37.16 34.84C37.672 34.264 38.112 33.696 38.48 33.136C38.72 32.768 38.936 32.424 39.128 32.104C39.336 31.768 39.544 31.4 39.752 31C39.816 30.888 39.872 30.832 39.92 30.832C40.016 30.832 40.064 30.968 40.064 31.24C40.064 31.352 40.04 31.488 39.992 31.648C39.96 31.808 39.904 31.968 39.824 32.128C39.536 32.608 39.264 33.056 39.008 33.472C38.752 33.872 38.44 34.312 38.072 34.792C37.336 35.768 36.552 36.464 35.72 36.88C34.888 37.28 33.904 37.48 32.768 37.48ZM41.8383 37.48C41.2943 37.48 40.7823 37.408 40.3023 37.264C39.8223 37.12 39.4303 36.896 39.1263 36.592C38.8223 36.288 38.6703 35.904 38.6703 35.44C38.6703 35.088 38.7743 34.744 38.9823 34.408C39.2063 34.072 39.5183 33.904 39.9183 33.904C40.0943 33.904 40.2543 33.944 40.3983 34.024C40.5423 34.104 40.6383 34.208 40.6863 34.336C40.6703 34.352 40.6303 34.408 40.5663 34.504C40.5023 34.584 40.4623 34.64 40.4463 34.672C40.3023 34.96 40.2303 35.224 40.2303 35.464C40.2303 35.8 40.3503 36.072 40.5903 36.28C40.8463 36.488 41.1743 36.592 41.5743 36.592C42.1023 36.576 42.5583 36.392 42.9423 36.04C43.3423 35.672 43.5423 35.24 43.5423 34.744C43.5423 34.456 43.4783 34.184 43.3503 33.928C43.1423 33.496 42.8623 33.128 42.5103 32.824C42.1743 32.504 41.8463 32.184 41.5263 31.864C41.2223 31.544 40.9983 31.16 40.8543 30.712C40.7903 30.504 40.7583 30.248 40.7583 29.944C40.7583 29.64 40.7983 29.344 40.8783 29.056C40.9583 28.752 41.0783 28.496 41.2383 28.288C41.4623 27.984 41.7983 27.704 42.2463 27.448C42.8063 27.144 43.4623 26.992 44.2143 26.992C44.7103 26.992 45.1503 27.056 45.5343 27.184C45.8223 27.28 46.0703 27.44 46.2783 27.664C46.5023 27.872 46.6143 28.152 46.6143 28.504C46.6143 28.904 46.4863 29.288 46.2303 29.656C45.9903 30.008 45.6383 30.224 45.1743 30.304C44.8863 30.336 44.6303 30.288 44.4063 30.16C44.1823 30.016 44.1023 29.752 44.1663 29.368C44.5983 29.272 44.9103 29.096 45.1023 28.84C45.1983 28.696 45.2463 28.552 45.2463 28.408C45.2463 28.136 45.1343 27.952 44.9103 27.856C44.7023 27.744 44.5023 27.688 44.3103 27.688C44.0703 27.688 43.8383 27.72 43.6143 27.784C43.4063 27.832 43.2143 27.92 43.0383 28.048C42.6863 28.352 42.5103 28.704 42.5103 29.104C42.5103 29.168 42.5183 29.24 42.5343 29.32C42.5663 29.4 42.5903 29.48 42.6063 29.56C42.6863 29.768 42.8063 29.96 42.9663 30.136C43.1263 30.312 43.2863 30.464 43.4463 30.592C43.8463 30.88 44.2543 31.192 44.6703 31.528C45.1023 31.864 45.4223 32.272 45.6303 32.752C45.7903 33.088 45.8703 33.432 45.8703 33.784C45.8703 34.264 45.7503 34.704 45.5103 35.104C45.2703 35.488 44.9983 35.792 44.6943 36.016C45.2223 35.792 45.7343 35.4 46.2303 34.84C46.7423 34.264 47.1823 33.696 47.5503 33.136C47.7903 32.768 48.0063 32.424 48.1983 32.104C48.4063 31.768 48.6143 31.4 48.8223 31C48.8863 30.888 48.9423 30.832 48.9903 30.832C49.0863 30.832 49.1343 30.968 49.1343 31.24C49.1343 31.352 49.1103 31.488 49.0623 31.648C49.0303 31.808 48.9743 31.968 48.8943 32.128C48.6063 32.608 48.3343 33.056 48.0783 33.472C47.8223 33.872 47.5103 34.312 47.1423 34.792C46.4063 35.768 45.6223 36.464 44.7903 36.88C43.9583 37.28 42.9743 37.48 41.8383 37.48ZM50.6926 37.192C49.9566 37.192 49.3166 36.96 48.7726 36.496C48.2446 36.032 47.9806 35.288 47.9806 34.264C47.9806 33.512 48.1166 32.728 48.3886 31.912C48.6606 31.096 49.0446 30.336 49.5406 29.632C50.0526 28.928 50.6686 28.352 51.3886 27.904C52.1086 27.456 52.9166 27.232 53.8126 27.232C54.5486 27.232 55.1166 27.376 55.5166 27.664C55.9326 27.936 56.2286 28.304 56.4046 28.768C56.5806 29.232 56.6686 29.728 56.6686 30.256C56.6686 30.656 56.6206 31.064 56.5246 31.48C56.4446 31.88 56.3246 32.28 56.1646 32.68C56.4366 33 56.7806 33.16 57.1966 33.16C57.6446 33.16 58.0606 32.992 58.4446 32.656C58.6686 32.464 58.8686 32.224 59.0446 31.936C59.2366 31.632 59.4046 31.352 59.5486 31.096C59.5966 31 59.6526 30.952 59.7166 30.952C59.7966 30.952 59.8366 31.064 59.8366 31.288C59.8366 31.432 59.8126 31.6 59.7646 31.792C59.7326 31.984 59.6526 32.176 59.5246 32.368C59.2846 32.784 59.0366 33.104 58.7806 33.328C58.5246 33.536 58.2366 33.704 57.9166 33.832C57.6766 33.928 57.4206 33.976 57.1486 33.976C56.6526 33.976 56.2046 33.824 55.8046 33.52C55.6766 33.792 55.5166 34.072 55.3246 34.36C54.8606 35.144 54.2606 35.816 53.5246 36.376C52.7886 36.92 51.8446 37.192 50.6926 37.192ZM51.6046 36.28C51.9726 36.28 52.3246 36.16 52.6606 35.92C53.0126 35.664 53.3326 35.352 53.6206 34.984C53.9086 34.616 54.1566 34.232 54.3646 33.832C54.5886 33.432 54.7726 33.08 54.9166 32.776C54.3726 32.312 54.1006 31.728 54.1006 31.024C54.1006 30.56 54.2286 30.2 54.4846 29.944C54.7406 29.688 55.0926 29.576 55.5406 29.608C55.5246 29.24 55.4286 28.936 55.2526 28.696C55.0766 28.456 54.7886 28.336 54.3886 28.336C54.0206 28.336 53.6686 28.448 53.3326 28.672C53.0126 28.896 52.7086 29.184 52.4206 29.536C52.1486 29.872 51.9006 30.224 51.6766 30.592C51.4686 30.944 51.2926 31.264 51.1486 31.552C50.9406 31.968 50.7486 32.472 50.5726 33.064C50.3966 33.656 50.3086 34.208 50.3086 34.72C50.3086 35.168 50.3966 35.544 50.5726 35.848C50.7646 36.136 51.1086 36.28 51.6046 36.28ZM61.2251 37.24C60.4731 37.24 59.8651 37.104 59.4011 36.832C58.9371 36.544 58.6011 36.168 58.3931 35.704C58.2011 35.224 58.1051 34.712 58.1051 34.168C58.1051 33.624 58.1851 33.072 58.3451 32.512C58.5051 31.952 58.7211 31.424 58.9931 30.928C59.5531 29.92 60.2411 29.088 61.0571 28.432C61.8891 27.776 62.9051 27.448 64.1051 27.448C64.8571 27.448 65.4411 27.64 65.8571 28.024C66.2731 28.408 66.4811 28.856 66.4811 29.368C66.4811 29.848 66.3371 30.288 66.0491 30.688C65.7771 31.088 65.4091 31.288 64.9451 31.288C64.6891 31.288 64.4651 31.216 64.2731 31.072C64.0811 30.928 63.9851 30.704 63.9851 30.4C63.9851 30.352 63.9851 30.304 63.9851 30.256C64.0011 30.192 64.0171 30.128 64.0331 30.064C64.1291 30.048 64.2651 30.024 64.4411 29.992C64.6331 29.944 64.7851 29.832 64.8971 29.656C65.1051 29.368 65.2091 29.08 65.2091 28.792C65.2091 28.616 65.1531 28.472 65.0411 28.36C64.9451 28.232 64.7771 28.168 64.5371 28.168C64.1051 28.168 63.6651 28.328 63.2171 28.648C62.7691 28.952 62.3451 29.36 61.9451 29.872C61.5611 30.384 61.2251 30.944 60.9371 31.552C60.4891 32.528 60.2651 33.424 60.2651 34.24C60.2651 34.832 60.4011 35.32 60.6731 35.704C60.9451 36.072 61.3771 36.256 61.9691 36.256C62.7211 36.256 63.4251 36 64.0811 35.488C64.7531 34.96 65.3531 34.352 65.8811 33.664C66.2331 33.216 66.5451 32.76 66.8171 32.296C67.1051 31.832 67.3451 31.408 67.5371 31.024C67.6011 30.912 67.6571 30.856 67.7051 30.856C67.8011 30.856 67.8491 30.992 67.8491 31.264C67.8491 31.392 67.8251 31.544 67.7771 31.72C67.7451 31.88 67.6891 32.032 67.6091 32.176C67.3371 32.624 67.0571 33.072 66.7691 33.52C66.4971 33.968 66.2011 34.392 65.8811 34.792C65.3371 35.496 64.6971 36.08 63.9611 36.544C63.2251 37.008 62.3131 37.24 61.2251 37.24ZM71.9626 25.48C71.5466 25.336 71.3386 25.064 71.3386 24.664C71.3386 24.296 71.4826 23.92 71.7706 23.536C72.0746 23.136 72.4026 22.88 72.7546 22.768C72.8346 22.736 72.8986 22.72 72.9466 22.72C73.0106 22.72 73.0746 22.72 73.1386 22.72C73.4106 22.72 73.6346 22.8 73.8106 22.96C73.9866 23.12 74.0746 23.304 74.0746 23.512C74.0746 23.8 73.9226 24.04 73.6186 24.232C73.3786 24.2 73.1466 24.256 72.9226 24.4C72.6986 24.544 72.4986 24.72 72.3226 24.928C72.1626 25.136 72.0426 25.32 71.9626 25.48ZM67.8346 37.144C67.6266 37.144 67.4266 37.096 67.2346 37C67.0426 36.92 66.8826 36.752 66.7546 36.496C66.5786 36.112 66.4906 35.656 66.4906 35.128C66.4906 34.552 66.5786 33.912 66.7546 33.208C66.9306 32.488 67.1626 31.752 67.4506 31C67.5626 30.728 67.7066 30.392 67.8826 29.992C68.0586 29.592 68.2666 29.192 68.5066 28.792C68.7466 28.392 69.0186 28.064 69.3226 27.808C69.6426 27.536 69.9866 27.4 70.3546 27.4C70.5306 27.4 70.7786 27.408 71.0986 27.424C71.4186 27.44 71.6506 27.44 71.7946 27.424C71.6986 27.488 71.5866 27.616 71.4586 27.808C71.3306 28 71.2106 28.2 71.0986 28.408C70.9866 28.6 70.8986 28.752 70.8346 28.864C70.4186 29.696 70.0266 30.52 69.6586 31.336C69.2906 32.152 69.0106 32.936 68.8186 33.688C68.7866 33.816 68.7626 33.944 68.7466 34.072C68.7306 34.2 68.7226 34.32 68.7226 34.432C68.7226 34.896 68.8746 35.128 69.1786 35.128C69.3066 35.128 69.4426 35.096 69.5866 35.032C69.7466 34.952 69.9306 34.832 70.1386 34.672C70.5066 34.384 70.8266 34.056 71.0986 33.688C71.4186 33.272 71.7226 32.832 72.0106 32.368C72.2986 31.888 72.5466 31.448 72.7546 31.048C72.8346 30.92 72.8906 30.856 72.9226 30.856C73.0186 30.856 73.0666 30.992 73.0666 31.264C73.0666 31.392 73.0426 31.544 72.9946 31.72C72.9626 31.88 72.9066 32.032 72.8266 32.176C72.6026 32.56 72.3386 32.984 72.0346 33.448C71.7306 33.912 71.4186 34.36 71.0986 34.792C70.8746 35.096 70.5786 35.432 70.2106 35.8C69.8426 36.168 69.4506 36.488 69.0346 36.76C68.6186 37.016 68.2186 37.144 67.8346 37.144ZM79.2298 37.144C78.7338 37.144 78.3898 36.952 78.1978 36.568C78.0218 36.184 77.9338 35.712 77.9338 35.152C77.9338 34.64 77.9818 34.136 78.0778 33.64C78.1258 33.416 78.1738 33.192 78.2218 32.968C78.2858 32.728 78.3578 32.48 78.4378 32.224C78.1658 32.72 77.8778 33.2 77.5738 33.664C77.2858 34.128 76.9898 34.536 76.6858 34.888C76.1738 35.512 75.6298 36.032 75.0538 36.448C74.4938 36.864 73.9338 37.072 73.3738 37.072C72.9258 37.072 72.5418 36.912 72.2218 36.592C71.9178 36.256 71.7658 35.68 71.7658 34.864C71.7658 34.032 71.9098 33.176 72.1978 32.296C72.4858 31.416 72.8858 30.6 73.3978 29.848C73.9258 29.08 74.5418 28.464 75.2458 28C75.9658 27.536 76.7498 27.304 77.5978 27.304C77.8698 27.304 78.1658 27.344 78.4858 27.424C78.8058 27.504 79.1018 27.656 79.3738 27.88C79.6458 28.088 79.8298 28.384 79.9258 28.768C79.9418 28.736 79.9578 28.712 79.9738 28.696C80.0058 28.68 80.0298 28.664 80.0458 28.648C80.2698 28.296 80.5258 28 80.8138 27.76C81.1018 27.52 81.4218 27.4 81.7738 27.4C81.9498 27.4 82.1978 27.408 82.5178 27.424C82.8378 27.44 83.0698 27.44 83.2137 27.424C83.1337 27.488 83.0218 27.616 82.8778 27.808C82.7498 28 82.6298 28.2 82.5178 28.408C82.4058 28.6 82.3178 28.752 82.2538 28.864C81.8218 29.696 81.4298 30.52 81.0778 31.336C80.7258 32.152 80.4538 32.936 80.2618 33.688C80.2138 33.848 80.1818 34 80.1658 34.144C80.1498 34.272 80.1418 34.4 80.1418 34.528C80.1418 34.944 80.2778 35.152 80.5498 35.152C80.8058 35.152 81.1258 34.992 81.5098 34.672C82.0698 34.224 82.5578 33.664 82.9738 32.992C83.4058 32.32 83.7818 31.672 84.1018 31.048C84.1658 30.936 84.2218 30.88 84.2698 30.88C84.3658 30.88 84.4138 31.016 84.4138 31.288C84.4138 31.416 84.3898 31.56 84.3418 31.72C84.3098 31.88 84.2538 32.032 84.1738 32.176C83.9498 32.56 83.6538 33.032 83.2858 33.592C82.9338 34.152 82.5338 34.704 82.0858 35.248C81.6378 35.776 81.1658 36.224 80.6698 36.592C80.1898 36.96 79.7098 37.144 79.2298 37.144ZM74.4538 35.056C74.5018 35.072 74.5738 35.08 74.6698 35.08C74.9738 35.08 75.3018 34.952 75.6538 34.696C76.0058 34.44 76.3578 34.112 76.7098 33.712C77.0618 33.296 77.3738 32.88 77.6458 32.464C78.3498 31.344 78.8698 30.504 79.2058 29.944C79.5418 29.384 79.7338 29.064 79.7818 28.984C79.7018 28.712 79.5578 28.512 79.3498 28.384C79.1578 28.256 78.9258 28.192 78.6538 28.192C78.3018 28.192 77.9258 28.288 77.5258 28.48C77.1418 28.672 76.8138 28.904 76.5418 29.176C76.1258 29.592 75.7258 30.128 75.3418 30.784C74.9738 31.44 74.6698 32.088 74.4298 32.728C74.2058 33.368 74.0938 33.904 74.0938 34.336C74.0938 34.736 74.2138 34.976 74.4538 35.056ZM85.1975 37.144C84.7335 37.144 84.3815 36.96 84.1415 36.592C84.0295 36.416 83.9495 36.208 83.9015 35.968C83.8535 35.728 83.8295 35.48 83.8295 35.224C83.8295 34.968 83.8455 34.712 83.8775 34.456C83.9095 34.184 83.9495 33.92 83.9975 33.664C84.0775 33.248 84.1655 32.872 84.2615 32.536C84.3735 32.184 84.4855 31.848 84.5975 31.528V31.504C84.4695 31.744 84.3095 32.008 84.1175 32.296C83.9255 32.568 83.7895 32.768 83.7095 32.896C83.5975 33.072 83.5095 33.16 83.4455 33.16C83.3815 33.16 83.3495 33.088 83.3495 32.944C83.3495 32.624 83.4455 32.272 83.6375 31.888C83.7655 31.632 83.9415 31.304 84.1655 30.904C84.3895 30.488 84.6215 30.04 84.8615 29.56C85.1015 29.08 85.3095 28.616 85.4855 28.168H83.8775C83.7975 28.168 83.7815 28.104 83.8295 27.976C83.8775 27.848 83.9495 27.728 84.0455 27.616C84.1415 27.488 84.2135 27.424 84.2615 27.424H86.0855C86.2615 27.008 86.4615 26.56 86.6855 26.08C86.9255 25.6 87.1895 25.152 87.4775 24.736C87.7815 24.304 88.1095 23.952 88.4615 23.68C88.8135 23.408 89.1895 23.272 89.5895 23.272C89.7655 23.272 89.9815 23.272 90.2375 23.272C90.5095 23.272 90.6775 23.264 90.7415 23.248C90.4055 23.472 90.0135 23.92 89.5655 24.592C89.1175 25.248 88.6295 26.192 88.1015 27.424H90.5255C90.5735 27.424 90.5575 27.488 90.4775 27.616C90.3975 27.728 90.2935 27.848 90.1655 27.976C90.0535 28.104 89.9415 28.168 89.8295 28.168H87.7655C87.5575 28.696 87.3255 29.272 87.0695 29.896C86.8295 30.52 86.6055 31.136 86.3975 31.744C86.2055 32.336 86.0615 32.88 85.9655 33.376C85.9015 33.68 85.8695 33.96 85.8695 34.216C85.8695 34.824 86.0615 35.128 86.4455 35.128C86.7015 35.128 87.0055 35 87.3575 34.744C87.7095 34.488 88.0615 34.136 88.4135 33.688C88.7335 33.272 89.0375 32.824 89.3255 32.344C89.6295 31.864 89.8855 31.424 90.0935 31.024C90.1575 30.912 90.2135 30.856 90.2615 30.856C90.3575 30.856 90.4055 30.984 90.4055 31.24C90.4055 31.368 90.3815 31.52 90.3335 31.696C90.3015 31.856 90.2375 32.016 90.1415 32.176C89.9175 32.56 89.6535 32.984 89.3495 33.448C89.0455 33.896 88.7335 34.344 88.4135 34.792C88.1895 35.08 87.8935 35.408 87.5255 35.776C87.1735 36.144 86.7895 36.464 86.3735 36.736C85.9735 37.008 85.5815 37.144 85.1975 37.144ZM94.4861 25.48C94.0701 25.336 93.8621 25.064 93.8621 24.664C93.8621 24.296 94.0061 23.92 94.2941 23.536C94.5981 23.136 94.9261 22.88 95.2781 22.768C95.3581 22.736 95.4221 22.72 95.4701 22.72C95.5341 22.72 95.5981 22.72 95.6621 22.72C95.9341 22.72 96.1581 22.8 96.3341 22.96C96.5101 23.12 96.5981 23.304 96.5981 23.512C96.5981 23.8 96.4461 24.04 96.1421 24.232C95.9021 24.2 95.6701 24.256 95.4461 24.4C95.2221 24.544 95.0221 24.72 94.8461 24.928C94.6861 25.136 94.5661 25.32 94.4861 25.48ZM90.3581 37.144C90.1501 37.144 89.9501 37.096 89.7581 37C89.5661 36.92 89.4061 36.752 89.2781 36.496C89.1021 36.112 89.0141 35.656 89.0141 35.128C89.0141 34.552 89.1021 33.912 89.2781 33.208C89.4541 32.488 89.6861 31.752 89.9741 31C90.0861 30.728 90.2301 30.392 90.4061 29.992C90.5821 29.592 90.7901 29.192 91.0301 28.792C91.2701 28.392 91.5421 28.064 91.8461 27.808C92.1661 27.536 92.5101 27.4 92.8781 27.4C93.0541 27.4 93.3021 27.408 93.6221 27.424C93.9421 27.44 94.1741 27.44 94.3181 27.424C94.2221 27.488 94.1101 27.616 93.9821 27.808C93.8541 28 93.7341 28.2 93.6221 28.408C93.5101 28.6 93.4221 28.752 93.3581 28.864C92.9421 29.696 92.5501 30.52 92.1821 31.336C91.8141 32.152 91.5341 32.936 91.3421 33.688C91.3101 33.816 91.2861 33.944 91.2701 34.072C91.2541 34.2 91.2461 34.32 91.2461 34.432C91.2461 34.896 91.3981 35.128 91.7021 35.128C91.8301 35.128 91.9661 35.096 92.1101 35.032C92.2701 34.952 92.4541 34.832 92.6621 34.672C93.0301 34.384 93.3501 34.056 93.6221 33.688C93.9421 33.272 94.2461 32.832 94.5341 32.368C94.8221 31.888 95.0701 31.448 95.2781 31.048C95.3581 30.92 95.4141 30.856 95.4461 30.856C95.5421 30.856 95.5901 30.992 95.5901 31.264C95.5901 31.392 95.5661 31.544 95.5181 31.72C95.4861 31.88 95.4301 32.032 95.3501 32.176C95.1261 32.56 94.8621 32.984 94.5581 33.448C94.2541 33.912 93.9421 34.36 93.6221 34.792C93.3981 35.096 93.1021 35.432 92.7341 35.8C92.3661 36.168 91.9741 36.488 91.5581 36.76C91.1421 37.016 90.7421 37.144 90.3581 37.144ZM97.1692 37.192C96.4332 37.192 95.7932 36.96 95.2492 36.496C94.7212 36.032 94.4572 35.288 94.4572 34.264C94.4572 33.512 94.5932 32.728 94.8652 31.912C95.1372 31.096 95.5212 30.336 96.0172 29.632C96.5292 28.928 97.1452 28.352 97.8652 27.904C98.5852 27.456 99.3932 27.232 100.289 27.232C101.025 27.232 101.593 27.376 101.993 27.664C102.409 27.936 102.705 28.304 102.881 28.768C103.057 29.232 103.145 29.728 103.145 30.256C103.145 30.656 103.097 31.064 103.001 31.48C102.921 31.88 102.801 32.28 102.641 32.68C102.913 33 103.257 33.16 103.673 33.16C104.121 33.16 104.537 32.992 104.921 32.656C105.145 32.464 105.345 32.224 105.521 31.936C105.713 31.632 105.881 31.352 106.025 31.096C106.073 31 106.129 30.952 106.193 30.952C106.273 30.952 106.313 31.064 106.313 31.288C106.313 31.432 106.289 31.6 106.241 31.792C106.209 31.984 106.129 32.176 106.001 32.368C105.761 32.784 105.513 33.104 105.257 33.328C105.001 33.536 104.713 33.704 104.393 33.832C104.153 33.928 103.897 33.976 103.625 33.976C103.129 33.976 102.681 33.824 102.281 33.52C102.153 33.792 101.993 34.072 101.801 34.36C101.337 35.144 100.737 35.816 100.001 36.376C99.2652 36.92 98.3212 37.192 97.1692 37.192ZM98.0812 36.28C98.4492 36.28 98.8012 36.16 99.1372 35.92C99.4892 35.664 99.8092 35.352 100.097 34.984C100.385 34.616 100.633 34.232 100.841 33.832C101.065 33.432 101.249 33.08 101.393 32.776C100.849 32.312 100.577 31.728 100.577 31.024C100.577 30.56 100.705 30.2 100.961 29.944C101.217 29.688 101.569 29.576 102.017 29.608C102.001 29.24 101.905 28.936 101.729 28.696C101.553 28.456 101.265 28.336 100.865 28.336C100.497 28.336 100.145 28.448 99.8092 28.672C99.4892 28.896 99.1852 29.184 98.8972 29.536C98.6252 29.872 98.3772 30.224 98.1532 30.592C97.9452 30.944 97.7692 31.264 97.6252 31.552C97.4172 31.968 97.2252 32.472 97.0492 33.064C96.8732 33.656 96.7852 34.208 96.7852 34.72C96.7852 35.168 96.8732 35.544 97.0492 35.848C97.2412 36.136 97.5852 36.28 98.0812 36.28ZM111.598 37.144C111.054 37.144 110.678 36.984 110.47 36.664C110.278 36.328 110.182 35.944 110.182 35.512C110.182 34.984 110.286 34.352 110.494 33.616C110.702 32.864 110.942 32.112 111.214 31.36C111.502 30.592 111.758 29.912 111.982 29.32C112.046 29.176 112.078 29.024 112.078 28.864C112.078 28.688 112.022 28.56 111.91 28.48C111.798 28.4 111.654 28.36 111.478 28.36C111.222 28.36 110.934 28.44 110.614 28.6C110.118 28.856 109.646 29.264 109.198 29.824C108.75 30.384 108.39 30.968 108.118 31.576C107.814 32.264 107.542 32.952 107.302 33.64C107.062 34.328 106.87 34.888 106.726 35.32C106.63 35.592 106.542 35.872 106.462 36.16C106.382 36.448 106.302 36.728 106.222 37H103.894C103.894 37 103.95 36.8 104.062 36.4C104.158 36 104.286 35.6 104.446 35.2C104.718 34.496 104.99 33.792 105.262 33.088C105.55 32.384 105.798 31.76 106.006 31.216C106.07 31.056 106.166 30.76 106.294 30.328C106.438 29.88 106.566 29.416 106.678 28.936C106.806 28.456 106.87 28.064 106.87 27.76C106.87 27.584 106.846 27.464 106.798 27.4C106.942 27.4 107.102 27.4 107.278 27.4C107.47 27.384 107.646 27.376 107.806 27.376C108.03 27.376 108.238 27.384 108.43 27.4C108.638 27.416 108.774 27.456 108.838 27.52C109.03 27.664 109.126 27.872 109.126 28.144C109.126 28.336 109.086 28.528 109.006 28.72C108.942 28.912 108.894 29.072 108.862 29.2C109.086 28.992 109.318 28.792 109.558 28.6C109.798 28.408 110.166 28.16 110.662 27.856C110.95 27.68 111.31 27.536 111.742 27.424C112.174 27.312 112.566 27.256 112.918 27.256C113.83 27.256 114.286 27.68 114.286 28.528C114.286 28.672 114.27 28.832 114.238 29.008C114.222 29.184 114.174 29.376 114.094 29.584C114.014 29.84 113.886 30.192 113.71 30.64C113.534 31.088 113.35 31.568 113.158 32.08C112.982 32.576 112.83 33.048 112.702 33.496C112.574 33.944 112.51 34.304 112.51 34.576C112.51 34.96 112.654 35.152 112.942 35.152C113.198 35.152 113.518 34.992 113.902 34.672C114.27 34.368 114.59 34.04 114.862 33.688C115.198 33.272 115.502 32.832 115.774 32.368C116.062 31.888 116.31 31.448 116.518 31.048C116.598 30.92 116.654 30.856 116.686 30.856C116.782 30.856 116.83 30.992 116.83 31.264C116.83 31.392 116.806 31.544 116.758 31.72C116.726 31.88 116.67 32.032 116.59 32.176C116.366 32.56 116.102 32.984 115.798 33.448C115.494 33.912 115.182 34.36 114.862 34.792C114.638 35.096 114.342 35.432 113.974 35.8C113.606 36.168 113.214 36.488 112.798 36.76C112.382 37.016 111.982 37.144 111.598 37.144ZM150.339 37.144C149.843 37.144 149.499 36.952 149.307 36.568C149.131 36.184 149.043 35.712 149.043 35.152C149.043 34.64 149.091 34.136 149.187 33.64C149.235 33.416 149.283 33.192 149.331 32.968C149.395 32.728 149.467 32.48 149.547 32.224C149.275 32.72 148.987 33.2 148.683 33.664C148.395 34.128 148.099 34.536 147.795 34.888C147.283 35.512 146.739 36.032 146.163 36.448C145.603 36.864 145.043 37.072 144.483 37.072C144.035 37.072 143.651 36.912 143.331 36.592C143.027 36.256 142.875 35.68 142.875 34.864C142.875 34.032 143.019 33.176 143.307 32.296C143.595 31.416 143.995 30.6 144.507 29.848C145.035 29.08 145.651 28.464 146.355 28C147.075 27.536 147.859 27.304 148.707 27.304C148.979 27.304 149.275 27.344 149.595 27.424C149.915 27.504 150.211 27.656 150.483 27.88C150.755 28.088 150.939 28.384 151.035 28.768C151.051 28.736 151.067 28.712 151.083 28.696C151.115 28.68 151.139 28.664 151.155 28.648C151.379 28.296 151.635 28 151.923 27.76C152.211 27.52 152.531 27.4 152.883 27.4C153.059 27.4 153.307 27.408 153.627 27.424C153.947 27.44 154.179 27.44 154.323 27.424C154.243 27.488 154.131 27.616 153.987 27.808C153.859 28 153.739 28.2 153.627 28.408C153.515 28.6 153.427 28.752 153.363 28.864C152.931 29.696 152.539 30.52 152.187 31.336C151.835 32.152 151.563 32.936 151.371 33.688C151.323 33.848 151.291 34 151.275 34.144C151.259 34.272 151.251 34.4 151.251 34.528C151.251 34.944 151.387 35.152 151.659 35.152C151.915 35.152 152.235 34.992 152.619 34.672C153.179 34.224 153.667 33.664 154.083 32.992C154.515 32.32 154.891 31.672 155.211 31.048C155.275 30.936 155.331 30.88 155.379 30.88C155.475 30.88 155.523 31.016 155.523 31.288C155.523 31.416 155.499 31.56 155.451 31.72C155.419 31.88 155.363 32.032 155.283 32.176C155.059 32.56 154.763 33.032 154.395 33.592C154.043 34.152 153.643 34.704 153.195 35.248C152.747 35.776 152.275 36.224 151.779 36.592C151.299 36.96 150.819 37.144 150.339 37.144ZM145.563 35.056C145.611 35.072 145.683 35.08 145.779 35.08C146.083 35.08 146.411 34.952 146.763 34.696C147.115 34.44 147.467 34.112 147.819 33.712C148.171 33.296 148.483 32.88 148.755 32.464C149.459 31.344 149.979 30.504 150.315 29.944C150.651 29.384 150.843 29.064 150.891 28.984C150.811 28.712 150.667 28.512 150.459 28.384C150.267 28.256 150.035 28.192 149.763 28.192C149.411 28.192 149.035 28.288 148.635 28.48C148.251 28.672 147.923 28.904 147.651 29.176C147.235 29.592 146.835 30.128 146.451 30.784C146.083 31.44 145.779 32.088 145.539 32.728C145.315 33.368 145.203 33.904 145.203 34.336C145.203 34.736 145.323 34.976 145.563 35.056ZM158.323 37.168C157.811 37.168 157.443 36.952 157.219 36.52C157.043 36.136 156.955 35.68 156.955 35.152C156.955 34.56 157.043 33.904 157.219 33.184C157.395 32.464 157.635 31.728 157.939 30.976C158.051 30.704 158.195 30.36 158.371 29.944C158.563 29.528 158.787 29.12 159.043 28.72C158.819 28.912 158.555 29.072 158.251 29.2C157.947 29.312 157.651 29.368 157.363 29.368C157.139 29.368 156.955 29.336 156.811 29.272C156.683 29.528 156.475 29.944 156.187 30.52C155.899 31.096 155.515 31.776 155.035 32.56C154.987 32.64 154.939 32.64 154.891 32.56C154.859 32.464 154.843 32.336 154.843 32.176C154.843 32.048 154.859 31.912 154.891 31.768C154.923 31.624 154.971 31.488 155.035 31.36C155.195 31.056 155.355 30.744 155.515 30.424C155.675 30.088 155.819 29.792 155.947 29.536C156.075 29.28 156.147 29.12 156.163 29.056C155.875 28.912 155.659 28.712 155.515 28.456C155.371 28.184 155.299 27.92 155.299 27.664C155.299 27.408 155.355 27.176 155.467 26.968C155.595 26.76 155.779 26.6 156.019 26.488C156.163 26.44 156.299 26.416 156.427 26.416C156.779 26.416 157.067 26.528 157.291 26.752C157.275 26.816 157.259 26.888 157.243 26.968C157.243 27.032 157.243 27.104 157.243 27.184C157.243 27.68 157.443 28.048 157.843 28.288C158.243 28.528 158.675 28.616 159.139 28.552C159.363 28.232 159.619 27.952 159.907 27.712C160.195 27.472 160.507 27.352 160.843 27.352C161.019 27.352 161.267 27.36 161.587 27.376C161.923 27.392 162.163 27.392 162.307 27.376C162.211 27.44 162.099 27.568 161.971 27.76C161.843 27.952 161.723 28.152 161.611 28.36C161.499 28.568 161.411 28.728 161.347 28.84C160.915 29.672 160.515 30.504 160.147 31.336C159.779 32.152 159.499 32.936 159.307 33.688C159.275 33.832 159.243 33.968 159.211 34.096C159.195 34.208 159.187 34.328 159.187 34.456C159.187 34.936 159.347 35.176 159.667 35.176C159.891 35.176 160.211 35.016 160.627 34.696C160.995 34.392 161.323 34.056 161.611 33.688C161.931 33.272 162.235 32.824 162.523 32.344C162.811 31.864 163.059 31.424 163.267 31.024C163.347 30.896 163.403 30.832 163.435 30.832C163.531 30.832 163.579 30.976 163.579 31.264C163.579 31.376 163.563 31.512 163.531 31.672C163.499 31.832 163.443 31.984 163.363 32.128C163.123 32.528 162.851 32.968 162.547 33.448C162.243 33.912 161.931 34.368 161.611 34.816C161.403 35.104 161.107 35.432 160.723 35.8C160.355 36.168 159.955 36.488 159.523 36.76C159.107 37.032 158.707 37.168 158.323 37.168ZM165.138 37.192C164.402 37.192 163.762 36.96 163.218 36.496C162.69 36.032 162.426 35.288 162.426 34.264C162.426 33.512 162.562 32.728 162.834 31.912C163.106 31.096 163.49 30.336 163.986 29.632C164.498 28.928 165.114 28.352 165.834 27.904C166.554 27.456 167.362 27.232 168.258 27.232C168.994 27.232 169.562 27.376 169.962 27.664C170.378 27.936 170.674 28.304 170.85 28.768C171.026 29.232 171.114 29.728 171.114 30.256C171.114 30.656 171.066 31.064 170.97 31.48C170.89 31.88 170.77 32.28 170.61 32.68C170.882 33 171.226 33.16 171.642 33.16C172.09 33.16 172.506 32.992 172.89 32.656C173.114 32.464 173.314 32.224 173.49 31.936C173.682 31.632 173.85 31.352 173.994 31.096C174.042 31 174.098 30.952 174.162 30.952C174.242 30.952 174.282 31.064 174.282 31.288C174.282 31.432 174.258 31.6 174.21 31.792C174.178 31.984 174.098 32.176 173.97 32.368C173.73 32.784 173.482 33.104 173.226 33.328C172.97 33.536 172.682 33.704 172.362 33.832C172.122 33.928 171.866 33.976 171.594 33.976C171.098 33.976 170.65 33.824 170.25 33.52C170.122 33.792 169.962 34.072 169.77 34.36C169.306 35.144 168.706 35.816 167.97 36.376C167.234 36.92 166.29 37.192 165.138 37.192ZM166.05 36.28C166.418 36.28 166.77 36.16 167.106 35.92C167.458 35.664 167.778 35.352 168.066 34.984C168.354 34.616 168.602 34.232 168.81 33.832C169.034 33.432 169.218 33.08 169.362 32.776C168.818 32.312 168.546 31.728 168.546 31.024C168.546 30.56 168.674 30.2 168.93 29.944C169.186 29.688 169.538 29.576 169.986 29.608C169.97 29.24 169.874 28.936 169.698 28.696C169.522 28.456 169.234 28.336 168.834 28.336C168.466 28.336 168.114 28.448 167.778 28.672C167.458 28.896 167.154 29.184 166.866 29.536C166.594 29.872 166.346 30.224 166.122 30.592C165.914 30.944 165.738 31.264 165.594 31.552C165.386 31.968 165.194 32.472 165.018 33.064C164.842 33.656 164.754 34.208 164.754 34.72C164.754 35.168 164.842 35.544 165.018 35.848C165.21 36.136 165.554 36.28 166.05 36.28ZM175.67 37.24C174.918 37.24 174.31 37.104 173.846 36.832C173.382 36.544 173.046 36.168 172.838 35.704C172.646 35.224 172.55 34.712 172.55 34.168C172.55 33.624 172.63 33.072 172.79 32.512C172.95 31.952 173.166 31.424 173.438 30.928C173.998 29.92 174.686 29.088 175.502 28.432C176.334 27.776 177.35 27.448 178.55 27.448C179.302 27.448 179.886 27.64 180.302 28.024C180.718 28.408 180.926 28.856 180.926 29.368C180.926 29.848 180.782 30.288 180.494 30.688C180.222 31.088 179.854 31.288 179.39 31.288C179.134 31.288 178.91 31.216 178.718 31.072C178.526 30.928 178.43 30.704 178.43 30.4C178.43 30.352 178.43 30.304 178.43 30.256C178.446 30.192 178.462 30.128 178.478 30.064C178.574 30.048 178.71 30.024 178.886 29.992C179.078 29.944 179.23 29.832 179.342 29.656C179.55 29.368 179.654 29.08 179.654 28.792C179.654 28.616 179.598 28.472 179.486 28.36C179.39 28.232 179.222 28.168 178.982 28.168C178.55 28.168 178.11 28.328 177.662 28.648C177.214 28.952 176.79 29.36 176.39 29.872C176.006 30.384 175.67 30.944 175.382 31.552C174.934 32.528 174.71 33.424 174.71 34.24C174.71 34.832 174.846 35.32 175.118 35.704C175.39 36.072 175.822 36.256 176.414 36.256C177.166 36.256 177.87 36 178.526 35.488C179.198 34.96 179.798 34.352 180.326 33.664C180.678 33.216 180.99 32.76 181.262 32.296C181.55 31.832 181.79 31.408 181.982 31.024C182.046 30.912 182.102 30.856 182.15 30.856C182.246 30.856 182.294 30.992 182.294 31.264C182.294 31.392 182.27 31.544 182.222 31.72C182.19 31.88 182.134 32.032 182.054 32.176C181.782 32.624 181.502 33.072 181.214 33.52C180.942 33.968 180.646 34.392 180.326 34.792C179.782 35.496 179.142 36.08 178.406 36.544C177.67 37.008 176.758 37.24 175.67 37.24ZM188.472 37.144C187.976 37.144 187.632 36.952 187.44 36.568C187.264 36.184 187.176 35.712 187.176 35.152C187.176 34.64 187.224 34.136 187.32 33.64C187.368 33.416 187.416 33.192 187.464 32.968C187.528 32.728 187.6 32.48 187.68 32.224C187.408 32.72 187.12 33.2 186.816 33.664C186.528 34.128 186.232 34.536 185.928 34.888C185.416 35.512 184.872 36.032 184.296 36.448C183.736 36.864 183.176 37.072 182.616 37.072C182.168 37.072 181.784 36.912 181.464 36.592C181.16 36.256 181.008 35.68 181.008 34.864C181.008 34.032 181.152 33.176 181.44 32.296C181.728 31.416 182.128 30.6 182.64 29.848C183.168 29.08 183.784 28.464 184.488 28C185.208 27.536 185.992 27.304 186.84 27.304C187.112 27.304 187.408 27.344 187.728 27.424C188.048 27.504 188.344 27.656 188.616 27.88C188.888 28.088 189.072 28.384 189.168 28.768C189.184 28.736 189.2 28.712 189.216 28.696C189.248 28.68 189.272 28.664 189.288 28.648C189.512 28.296 189.768 28 190.056 27.76C190.344 27.52 190.664 27.4 191.016 27.4C191.192 27.4 191.44 27.408 191.76 27.424C192.08 27.44 192.312 27.44 192.456 27.424C192.376 27.488 192.264 27.616 192.12 27.808C191.992 28 191.872 28.2 191.76 28.408C191.648 28.6 191.56 28.752 191.496 28.864C191.064 29.696 190.672 30.52 190.32 31.336C189.968 32.152 189.696 32.936 189.504 33.688C189.456 33.848 189.424 34 189.408 34.144C189.392 34.272 189.384 34.4 189.384 34.528C189.384 34.944 189.52 35.152 189.792 35.152C190.048 35.152 190.368 34.992 190.752 34.672C191.312 34.224 191.8 33.664 192.216 32.992C192.648 32.32 193.024 31.672 193.344 31.048C193.408 30.936 193.464 30.88 193.512 30.88C193.608 30.88 193.656 31.016 193.656 31.288C193.656 31.416 193.632 31.56 193.584 31.72C193.552 31.88 193.496 32.032 193.416 32.176C193.192 32.56 192.896 33.032 192.528 33.592C192.176 34.152 191.776 34.704 191.328 35.248C190.88 35.776 190.408 36.224 189.912 36.592C189.432 36.96 188.952 37.144 188.472 37.144ZM183.696 35.056C183.744 35.072 183.816 35.08 183.912 35.08C184.216 35.08 184.544 34.952 184.896 34.696C185.248 34.44 185.6 34.112 185.952 33.712C186.304 33.296 186.616 32.88 186.888 32.464C187.592 31.344 188.112 30.504 188.448 29.944C188.784 29.384 188.976 29.064 189.024 28.984C188.944 28.712 188.8 28.512 188.592 28.384C188.4 28.256 188.168 28.192 187.896 28.192C187.544 28.192 187.168 28.288 186.768 28.48C186.384 28.672 186.056 28.904 185.784 29.176C185.368 29.592 184.968 30.128 184.584 30.784C184.216 31.44 183.912 32.088 183.672 32.728C183.448 33.368 183.336 33.904 183.336 34.336C183.336 34.736 183.456 34.976 183.696 35.056ZM197.752 25.48C197.336 25.336 197.128 25.064 197.128 24.664C197.128 24.296 197.272 23.92 197.56 23.536C197.864 23.136 198.192 22.88 198.544 22.768C198.624 22.736 198.688 22.72 198.736 22.72C198.8 22.72 198.864 22.72 198.928 22.72C199.2 22.72 199.424 22.8 199.6 22.96C199.776 23.12 199.864 23.304 199.864 23.512C199.864 23.8 199.712 24.04 199.408 24.232C199.168 24.2 198.936 24.256 198.712 24.4C198.488 24.544 198.288 24.72 198.112 24.928C197.952 25.136 197.832 25.32 197.752 25.48ZM193.624 37.144C193.416 37.144 193.216 37.096 193.024 37C192.832 36.92 192.672 36.752 192.544 36.496C192.368 36.112 192.28 35.656 192.28 35.128C192.28 34.552 192.368 33.912 192.544 33.208C192.72 32.488 192.952 31.752 193.24 31C193.352 30.728 193.496 30.392 193.672 29.992C193.848 29.592 194.056 29.192 194.296 28.792C194.536 28.392 194.808 28.064 195.112 27.808C195.432 27.536 195.776 27.4 196.144 27.4C196.32 27.4 196.568 27.408 196.888 27.424C197.208 27.44 197.44 27.44 197.584 27.424C197.488 27.488 197.376 27.616 197.248 27.808C197.12 28 197 28.2 196.888 28.408C196.776 28.6 196.688 28.752 196.624 28.864C196.208 29.696 195.816 30.52 195.448 31.336C195.08 32.152 194.8 32.936 194.608 33.688C194.576 33.816 194.552 33.944 194.536 34.072C194.52 34.2 194.512 34.32 194.512 34.432C194.512 34.896 194.664 35.128 194.968 35.128C195.096 35.128 195.232 35.096 195.376 35.032C195.536 34.952 195.72 34.832 195.928 34.672C196.296 34.384 196.616 34.056 196.888 33.688C197.208 33.272 197.512 32.832 197.8 32.368C198.088 31.888 198.336 31.448 198.544 31.048C198.624 30.92 198.68 30.856 198.712 30.856C198.808 30.856 198.856 30.992 198.856 31.264C198.856 31.392 198.832 31.544 198.784 31.72C198.752 31.88 198.696 32.032 198.616 32.176C198.392 32.56 198.128 32.984 197.824 33.448C197.52 33.912 197.208 34.36 196.888 34.792C196.664 35.096 196.368 35.432 196 35.8C195.632 36.168 195.24 36.488 194.824 36.76C194.408 37.016 194.008 37.144 193.624 37.144ZM204.083 37.144C203.539 37.144 203.163 36.984 202.955 36.664C202.763 36.328 202.667 35.944 202.667 35.512C202.667 34.984 202.771 34.352 202.979 33.616C203.187 32.864 203.427 32.112 203.699 31.36C203.987 30.592 204.243 29.912 204.467 29.32C204.531 29.176 204.563 29.024 204.563 28.864C204.563 28.688 204.507 28.56 204.395 28.48C204.283 28.4 204.139 28.36 203.963 28.36C203.707 28.36 203.419 28.44 203.099 28.6C202.603 28.856 202.131 29.264 201.683 29.824C201.235 30.384 200.875 30.968 200.603 31.576C200.299 32.264 200.027 32.952 199.787 33.64C199.547 34.328 199.355 34.888 199.211 35.32C199.115 35.592 199.027 35.872 198.947 36.16C198.867 36.448 198.787 36.728 198.707 37H196.379C196.379 37 196.435 36.8 196.547 36.4C196.643 36 196.771 35.6 196.931 35.2C197.203 34.496 197.475 33.792 197.747 33.088C198.035 32.384 198.283 31.76 198.491 31.216C198.555 31.056 198.651 30.76 198.779 30.328C198.923 29.88 199.051 29.416 199.163 28.936C199.291 28.456 199.355 28.064 199.355 27.76C199.355 27.584 199.331 27.464 199.283 27.4C199.427 27.4 199.587 27.4 199.763 27.4C199.955 27.384 200.131 27.376 200.291 27.376C200.515 27.376 200.723 27.384 200.915 27.4C201.123 27.416 201.259 27.456 201.323 27.52C201.515 27.664 201.611 27.872 201.611 28.144C201.611 28.336 201.571 28.528 201.491 28.72C201.427 28.912 201.379 29.072 201.347 29.2C201.571 28.992 201.803 28.792 202.043 28.6C202.283 28.408 202.651 28.16 203.147 27.856C203.435 27.68 203.795 27.536 204.227 27.424C204.659 27.312 205.051 27.256 205.403 27.256C206.315 27.256 206.771 27.68 206.771 28.528C206.771 28.672 206.755 28.832 206.723 29.008C206.707 29.184 206.659 29.376 206.579 29.584C206.499 29.84 206.371 30.192 206.195 30.64C206.019 31.088 205.835 31.568 205.643 32.08C205.467 32.576 205.315 33.048 205.187 33.496C205.059 33.944 204.995 34.304 204.995 34.576C204.995 34.96 205.139 35.152 205.427 35.152C205.683 35.152 206.003 34.992 206.387 34.672C206.755 34.368 207.075 34.04 207.347 33.688C207.683 33.272 207.987 32.832 208.259 32.368C208.547 31.888 208.795 31.448 209.003 31.048C209.083 30.92 209.139 30.856 209.171 30.856C209.267 30.856 209.315 30.992 209.315 31.264C209.315 31.392 209.291 31.544 209.243 31.72C209.211 31.88 209.155 32.032 209.075 32.176C208.851 32.56 208.587 32.984 208.283 33.448C207.979 33.912 207.667 34.36 207.347 34.792C207.123 35.096 206.827 35.432 206.459 35.8C206.091 36.168 205.699 36.488 205.283 36.76C204.867 37.016 204.467 37.144 204.083 37.144ZM213.744 36.664C213.008 37.048 212.232 37.24 211.416 37.24C210.728 37.24 210.088 37.072 209.496 36.736C208.904 36.4 208.504 35.864 208.296 35.128C208.2 34.792 208.152 34.44 208.152 34.072C208.152 33.464 208.256 32.84 208.464 32.2C208.688 31.544 208.976 30.944 209.328 30.4C209.872 29.552 210.56 28.848 211.392 28.288C212.224 27.728 213.144 27.448 214.152 27.448C214.904 27.448 215.488 27.64 215.904 28.024C216.32 28.408 216.528 28.856 216.528 29.368C216.528 29.976 216.32 30.512 215.904 30.976C215.504 31.424 214.976 31.768 214.32 32.008C214 32.12 213.656 32.208 213.288 32.272C212.936 32.32 212.6 32.344 212.28 32.344C211.624 32.344 211.12 32.256 210.768 32.08C210.464 32.864 210.312 33.584 210.312 34.24C210.312 34.832 210.448 35.32 210.72 35.704C210.992 36.072 211.424 36.256 212.016 36.256C212.512 36.256 213 36.12 213.48 35.848C213.976 35.576 214.432 35.24 214.848 34.84C215.28 34.44 215.64 34.056 215.928 33.688C216.152 33.416 216.344 33.16 216.504 32.92C216.664 32.68 216.832 32.408 217.008 32.104C217.184 31.784 217.392 31.392 217.632 30.928C217.696 30.816 217.752 30.76 217.8 30.76C217.896 30.76 217.944 30.888 217.944 31.144C217.944 31.288 217.92 31.448 217.872 31.624C217.84 31.784 217.776 31.952 217.68 32.128C217.456 32.528 217.184 32.968 216.864 33.448C216.56 33.912 216.248 34.36 215.928 34.792C215.64 35.176 215.312 35.528 214.944 35.848C214.576 36.168 214.176 36.44 213.744 36.664ZM211.56 31.552C211.64 31.6 211.728 31.632 211.824 31.648C211.92 31.664 212.016 31.672 212.112 31.672C212.432 31.672 212.752 31.6 213.072 31.456C213.392 31.296 213.664 31.136 213.888 30.976C214.256 30.72 214.568 30.416 214.824 30.064C215.08 29.712 215.224 29.312 215.256 28.864C215.272 28.672 215.224 28.512 215.112 28.384C215.016 28.24 214.84 28.168 214.584 28.168C214.456 28.168 214.296 28.192 214.104 28.24C213.848 28.304 213.592 28.424 213.336 28.6C213.08 28.776 212.832 28.984 212.592 29.224C212.512 29.304 212.368 29.464 212.16 29.704C211.968 29.928 211.784 30.184 211.608 30.472C211.432 30.744 211.344 30.984 211.344 31.192C211.344 31.368 211.416 31.488 211.56 31.552Z" fill="black"/>
<path d="M23.8316 12.1955C29.0145 16.1695 19.4782 15.3046 14.108 19.1399C8.73775 22.9752 9.56713 30.0583 4.38432 26.0843C-0.798498 22.1103 -0.646568 15.7797 4.72366 11.9444C10.0939 8.10912 18.6488 8.22154 23.8316 12.1955Z" fill="black"/>
<path d="M34.854 17.419C29.4181 21.2033 30.7083 14.1581 25.5944 10.1356C20.4805 6.11299 10.899 6.63635 16.3349 2.85206C21.7708 -0.932229 30.3231 -0.739068 35.437 3.28349C40.5509 7.30606 40.2899 13.6348 34.854 17.419Z" fill="#FF0000"/>
</svg>
